<svg width="423" height="425" viewBox="0 0 423 425" fill="none" xmlns="http://www.w3.org/2000/svg">
<g clip-path="url(#clip0_2_160)">
<path d="M417.08 412.731C418.856 410.182 420.801 407.76 422.915 405.466V409.417C421.647 410.905 420.463 412.391 419.321 413.964C417.418 416.64 416.023 419.572 415.05 422.716C414.796 423.523 414.585 424.331 414.416 425.138H411.794C411.921 424.543 412.047 423.991 412.216 423.396C413.231 419.614 414.796 416.003 417.08 412.731ZM402.448 377.934C400.672 380.908 399.784 384.18 399.826 387.664C399.869 390.553 400.419 393.23 401.856 395.779C403.844 399.178 406.931 400.707 410.779 400.112C411.921 399.943 412.64 399.433 413.147 398.455C413.274 398.201 413.443 397.946 413.57 397.691C414.119 396.416 414.838 395.269 415.557 394.122C417.376 391.233 419.913 389.151 422.873 387.707V385.667C422.239 385.922 421.647 386.262 421.012 386.602C419.448 387.579 417.968 388.683 416.657 390.001C415.473 391.105 414.543 392.423 413.781 393.825C413.189 394.93 412.64 396.077 412.09 397.224C412.005 397.351 411.921 397.436 411.752 397.351C411.667 397.308 411.625 397.181 411.625 397.096C411.667 396.798 411.709 396.501 411.794 396.246C411.963 395.779 412.132 395.312 412.343 394.887C413.993 391.615 416.319 388.896 419.278 386.729C420.378 385.922 421.605 385.412 422.873 384.987V383.67C419.913 384.647 417.418 386.305 415.389 388.683C414.543 389.703 413.739 390.723 412.935 391.785C412.005 393.06 411.413 394.504 410.906 395.949C410.864 396.077 410.737 396.204 410.567 396.077C410.483 396.034 410.44 395.906 410.44 395.822C410.483 395.396 410.483 394.93 410.567 394.504C411.582 390.468 413.697 387.197 417.08 384.774C418.771 383.585 420.632 382.863 422.873 382.693V379.931C420.294 380.101 417.756 381.036 415.346 382.863C412.555 384.945 410.694 387.791 409.341 390.978C408.749 392.38 408.495 393.867 408.495 395.396C408.495 396.119 408.284 396.332 407.523 396.289C406.508 396.246 405.662 395.779 404.943 395.099C404.097 394.334 403.548 393.357 403.125 392.295C401.729 388.896 401.729 385.455 402.956 382.013C403.505 380.441 404.266 378.954 405.197 377.595C407.312 374.493 409.806 371.816 412.851 369.649C415.896 367.482 419.236 366.208 422.873 365.783V363.446C419.702 363.743 416.741 364.721 413.993 366.293C409.172 369.225 405.324 373.134 402.448 377.934ZM388.366 285.355C390.946 290.368 392.257 295.679 391.834 301.415C391.623 304.304 390.946 307.108 389.974 309.827C389.254 311.824 388.366 313.778 387.394 315.648C385.787 318.707 383.588 321.256 381.051 323.508C378.514 325.802 375.85 327.884 373.059 329.839C370.733 331.496 368.449 333.153 366.25 334.979C363.291 337.444 361.091 340.545 359.484 344.115C358.385 346.536 357.751 349.086 357.751 351.805C357.751 354.397 358.258 356.861 359.484 359.155C360.118 360.345 360.88 361.449 361.599 362.596C361.852 363.021 362.148 363.446 362.36 363.914C362.825 364.89 362.529 365.868 361.599 366.378C361.007 366.718 360.372 366.845 359.738 366.803C356.736 366.59 353.691 366.378 350.689 366.08C348.49 365.826 346.375 365.103 344.388 363.998C341.639 362.469 339.483 360.26 338.129 357.285C334.535 349.341 334.831 341.692 339.567 334.385C341.723 331.071 344.303 328.097 347.263 325.548C349.589 323.55 352.084 321.724 354.706 320.194C356.736 319.004 358.766 317.857 360.795 316.668C364.39 314.543 367.561 311.867 370.437 308.765C374.158 304.729 375.427 299.885 374.793 294.404C374.708 293.512 374.412 292.62 374.158 291.77C373.27 289.051 371.875 286.629 370.098 284.463C369.634 283.867 369.041 283.272 368.449 282.806C364.982 280.129 361.176 278.387 356.82 278.089C354.495 277.919 352.169 278.047 349.885 278.259C348.574 278.387 347.348 278.811 346.164 279.406C345.995 279.492 345.741 279.534 345.741 279.831C345.868 280.171 346.164 280.129 346.418 280.171C351.534 281.191 355.256 284.208 357.708 289.009C359.315 292.152 360.245 295.509 360.245 299.12C360.245 301.755 359.569 304.176 358.216 306.343C355.721 310.295 352.211 312.717 347.813 313.778C346.333 314.119 344.811 314.161 343.33 313.778C338.129 312.462 333.9 309.658 330.94 304.856C329.08 301.84 328.361 298.526 328.615 294.957C328.699 293.81 328.826 292.705 328.996 291.6C329.926 286.162 332.632 281.87 336.776 278.557C339.736 276.177 343.035 274.35 346.587 273.076C350.055 271.844 353.564 270.782 357.201 270.144C360.88 269.507 364.474 269.592 368.111 270.527C374.031 272.013 379.148 275.03 383.715 279.236C385.576 280.894 387.141 283.018 388.366 285.355ZM345.445 283.06C343.246 282.551 341.089 282.72 339.017 283.867C337.749 284.547 336.692 285.482 335.634 286.46C332.294 289.561 331.406 293.555 331.871 297.973C332.124 300.565 333.055 302.902 334.704 304.899C337.03 307.703 339.905 309.487 343.204 310.55C344.811 311.06 346.418 311.017 347.982 310.592C350.689 309.827 353.014 308.383 354.833 306.046C356.609 303.752 357.454 301.16 357.201 298.143C356.905 294.404 355.594 291.133 353.395 288.159C351.365 285.397 348.659 283.782 345.445 283.06ZM387.944 296.784C387.014 290.75 384.476 285.61 379.909 281.658C378.303 280.299 376.611 279.066 374.835 278.004C371.748 276.135 368.449 274.903 364.982 274.223C363.46 273.926 361.895 273.755 360.161 274.053C360.626 274.478 361.007 274.52 361.345 274.605C364.77 275.412 367.815 277.154 370.69 279.194C371.452 279.747 372.171 280.384 372.763 281.106C376.906 285.992 379.275 291.515 378.598 298.186C378.133 303.029 376.526 307.278 373.059 310.634C372.509 311.187 371.959 311.739 371.41 312.249C368.407 315.053 365.193 317.475 361.726 319.557C359.273 321.001 356.82 322.403 354.452 323.933C349.589 326.992 345.487 330.944 342.189 335.787C338.679 340.971 337.791 346.621 339.44 352.74C340.835 357.88 343.923 361.322 348.955 362.681C349.462 362.809 350.012 362.936 350.562 363.021C353.057 363.404 355.594 363.446 358.131 363.574C358.216 363.574 358.3 363.446 358.342 363.404C358.385 363.021 358.089 362.809 357.878 362.554C354.029 357.201 353.31 351.38 355.383 345.177C356.947 340.418 359.654 336.424 363.375 333.28C364.813 332.091 366.292 330.986 367.815 329.924C369.76 328.521 371.748 327.204 373.693 325.76C376.103 323.976 378.471 322.063 380.586 319.896C382.7 317.73 384.349 315.266 385.491 312.419C386.253 310.465 386.887 308.51 387.394 306.47C388.198 303.199 388.451 300.013 387.944 296.784ZM365.193 380.908C365.743 382.948 365.616 384.945 364.813 386.857C364.221 388.217 363.46 389.406 362.487 390.468C358.723 394.377 352.634 395.524 347.813 393.144C345.233 391.87 343.288 389.873 342.274 386.984C341.978 386.134 341.851 385.242 341.766 384.52C341.554 381.715 342.274 379.379 343.796 377.34C346.248 374.068 349.547 372.539 353.48 372.411C355.636 372.369 357.751 372.879 359.738 373.813C361.007 374.408 362.064 375.257 362.952 376.362C364.009 377.764 364.77 379.294 365.193 380.908ZM361.26 379.761C359.654 376.702 357.201 375.173 354.41 375.428C352.042 375.598 350.224 376.235 348.828 377.212C347.813 377.934 346.925 378.869 346.333 380.016C344.726 382.99 345.276 386.347 347.728 388.599C348.363 389.151 349.039 389.619 349.758 389.958C351.704 390.85 353.734 391.021 355.763 390.511C357.793 390.001 359.569 388.896 360.795 387.069C362.402 384.774 362.572 382.268 361.26 379.761ZM412.216 211.002C411.033 215.506 410.779 220.137 411.075 224.768C411.244 227.317 411.879 229.781 412.935 232.075C413.359 232.968 413.697 233.86 414.12 234.753C414.543 235.687 415.092 236.537 415.684 237.386C416.023 237.896 416.53 238.151 417.165 238.194C419.025 238.236 420.928 238.279 423 238.151V235.177C422.154 235.305 421.309 235.347 420.463 235.262C420.293 235.262 420.082 235.22 419.997 234.88C420.928 234.795 421.943 234.71 423 234.625V232.161C422.577 232.203 422.154 232.246 421.689 232.33C420.251 232.458 418.602 232.585 416.953 232.713C416.361 232.756 415.938 232.628 415.684 232.033C414.712 229.824 413.95 227.614 413.739 225.193C413.359 220.137 413.612 215.166 415.092 210.279C416.065 207.136 417.46 204.204 419.363 201.527C420.463 199.955 421.689 198.426 422.958 196.981V193.03C420.843 195.324 418.898 197.703 417.122 200.295C414.796 203.566 413.231 207.178 412.216 211.002ZM402.448 165.498C400.672 168.472 399.784 171.744 399.826 175.228C399.869 178.117 400.419 180.794 401.856 183.343C403.844 186.742 406.931 188.271 410.779 187.676C411.921 187.507 412.64 186.997 413.147 186.019C413.274 185.765 413.443 185.51 413.57 185.255C414.119 183.98 414.838 182.833 415.557 181.686C417.376 178.797 419.913 176.715 422.873 175.27V173.231C422.239 173.486 421.647 173.826 421.012 174.165C419.448 175.143 417.968 176.247 416.657 177.564C415.473 178.669 414.543 179.986 413.781 181.388C413.189 182.493 412.64 183.64 412.09 184.787C412.005 184.915 411.921 185 411.752 184.915C411.667 184.872 411.625 184.745 411.625 184.66C411.667 184.363 411.709 184.065 411.794 183.81C411.963 183.343 412.132 182.875 412.343 182.451C413.993 179.179 416.319 176.459 419.278 174.293C420.378 173.486 421.605 172.976 422.873 172.551V171.234C419.913 172.211 417.418 173.868 415.389 176.247C414.543 177.267 413.739 178.287 412.935 179.349C412.005 180.623 411.413 182.068 410.906 183.513C410.864 183.64 410.737 183.768 410.567 183.64C410.483 183.598 410.44 183.47 410.44 183.385C410.483 182.96 410.483 182.493 410.567 182.068C411.582 178.032 413.697 174.76 417.08 172.339C418.771 171.149 420.632 170.427 422.873 170.256V167.495C420.294 167.665 417.756 168.599 415.346 170.427C412.555 172.508 410.694 175.355 409.341 178.542C408.749 179.944 408.495 181.431 408.495 182.96C408.495 183.682 408.284 183.895 407.523 183.853C406.508 183.81 405.662 183.343 404.943 182.663C404.097 181.898 403.548 180.921 403.125 179.859C401.729 176.459 401.729 173.018 402.956 169.577C403.505 168.005 404.266 166.518 405.197 165.158C407.312 162.057 409.806 159.38 412.851 157.213C415.896 155.046 419.236 153.771 422.873 153.347V151.01C419.702 151.307 416.741 152.285 413.993 153.857C409.172 156.788 405.324 160.697 402.448 165.498ZM412.724 248.646C410.314 253.574 412.174 259.013 415.262 261.944C415.98 262.624 416.699 263.261 417.46 263.856C419.109 265.131 420.928 266.023 422.915 266.321V261.647C422.746 261.647 422.535 261.689 422.366 261.689C420.928 261.731 418.602 261.052 416.657 259.31C414.035 256.973 413.147 253.361 414.543 250.133C416.023 246.648 418.729 244.737 422.366 244.142C422.535 244.099 422.746 244.099 422.915 244.057V241.38C422.239 241.466 421.478 241.635 420.759 241.848C417.165 242.995 414.416 245.204 412.724 248.646ZM388.366 72.9181C390.946 77.9319 392.257 83.2429 391.834 88.9785C391.623 91.8677 390.946 94.6718 389.974 97.3913C389.254 99.3878 388.366 101.343 387.394 103.211C385.787 106.271 383.588 108.82 381.051 111.072C378.514 113.367 375.85 115.448 373.059 117.402C370.733 119.06 368.449 120.717 366.25 122.543C363.291 125.007 361.091 128.109 359.484 131.678C358.385 134.1 357.751 136.649 357.751 139.369C357.751 141.96 358.258 144.425 359.484 146.719C360.118 147.908 360.88 149.013 361.599 150.16C361.852 150.585 362.148 151.01 362.36 151.477C362.825 152.454 362.529 153.432 361.599 153.942C361.007 154.281 360.372 154.409 359.738 154.366C356.736 154.154 353.691 153.942 350.689 153.644C348.49 153.389 346.375 152.667 344.388 151.562C341.639 150.033 339.483 147.824 338.129 144.849C334.535 136.904 334.831 129.256 339.567 121.948C341.723 118.635 344.303 115.661 347.263 113.112C349.589 111.115 352.084 109.287 354.706 107.758C356.736 106.568 358.766 105.421 360.795 104.231C364.39 102.107 367.561 99.4307 370.437 96.3288C374.158 92.2924 375.427 87.449 374.793 81.9683C374.708 81.0761 374.412 80.1839 374.158 79.3339C373.27 76.6151 371.875 74.1927 370.098 72.0259C369.634 71.4315 369.041 70.8365 368.449 70.369C364.982 67.6924 361.176 65.9502 356.82 65.653C354.495 65.4833 352.169 65.6107 349.885 65.8228C348.574 65.9502 347.348 66.3755 346.164 66.9699C345.995 67.0551 345.741 67.0973 345.741 67.3952C345.868 67.7346 346.164 67.6924 346.418 67.7346C351.534 68.7549 355.256 71.771 357.708 76.5721C359.315 79.7163 360.245 83.0731 360.245 86.6842C360.245 89.3186 359.569 91.7403 358.216 93.9071C355.721 97.8583 352.211 100.28 347.813 101.343C346.333 101.682 344.811 101.725 343.33 101.343C338.129 100.025 333.9 97.221 330.94 92.4198C329.08 89.4031 328.361 86.0892 328.615 82.5204C328.699 81.3733 328.826 80.2684 328.996 79.1642C329.926 73.7258 332.632 69.4345 336.776 66.1206C339.736 63.7412 343.035 61.9145 346.587 60.6392C350.055 59.4076 353.564 58.345 357.201 57.7077C360.88 57.0704 364.474 57.1556 368.111 58.0901C374.031 59.5773 379.148 62.594 383.715 66.8001C385.576 68.4571 387.141 70.5816 388.366 72.9181ZM345.445 70.6239C343.246 70.1141 341.089 70.2844 339.017 71.4315C337.749 72.1111 336.692 73.0456 335.634 74.023C332.294 77.1249 331.406 81.1184 331.871 85.5371C332.124 88.1285 333.055 90.4657 334.704 92.4628C337.03 95.2668 339.905 97.0512 343.204 98.1132C344.811 98.623 346.418 98.5807 347.982 98.1561C350.689 97.3913 353.014 95.9464 354.833 93.6099C356.609 91.3156 357.454 88.7236 357.201 85.7068C356.905 81.9683 355.594 78.6966 353.395 75.7228C351.365 72.961 348.659 71.3464 345.445 70.6239ZM387.944 84.3477C387.014 78.3143 384.476 73.173 379.909 69.2218C378.303 67.8621 376.611 66.6304 374.835 65.5678C371.748 63.6989 368.449 62.4666 364.982 61.787C363.46 61.4892 361.895 61.3195 360.161 61.6166C360.626 62.0419 361.007 62.0842 361.345 62.1694C364.77 62.9764 367.815 64.7185 370.69 66.7579C371.452 67.31 372.171 67.9473 372.763 68.6697C376.906 73.5554 379.275 79.079 378.598 85.7497C378.133 90.5932 376.526 94.8415 373.059 98.1984C372.509 98.7505 371.959 99.3032 371.41 99.813C368.407 102.617 365.193 105.039 361.726 107.12C359.273 108.565 356.82 109.967 354.452 111.497C349.589 114.556 345.487 118.507 342.189 123.35C338.679 128.534 337.791 134.185 339.44 140.303C340.835 145.444 343.923 148.886 348.955 150.245C349.462 150.373 350.012 150.5 350.562 150.585C353.057 150.967 355.594 151.01 358.131 151.138C358.216 151.138 358.3 151.01 358.342 150.967C358.385 150.585 358.089 150.373 357.878 150.118C354.029 144.764 353.31 138.943 355.383 132.74C356.947 127.982 359.654 123.988 363.375 120.844C364.813 119.654 366.292 118.549 367.815 117.487C369.76 116.085 371.748 114.769 373.693 113.324C376.103 111.539 378.471 109.627 380.586 107.461C382.7 105.294 384.349 102.829 385.491 99.9828C386.253 98.0286 386.887 96.0738 387.394 94.0345C388.198 90.7629 388.451 87.5764 387.944 84.3477ZM342.274 174.591C341.978 173.741 341.851 172.848 341.766 172.126C341.554 169.322 342.274 166.985 343.796 164.946C346.248 161.674 349.547 160.145 353.48 160.017C355.636 159.974 357.751 160.484 359.738 161.419C361.007 162.014 362.064 162.864 362.952 163.969C364.009 165.285 364.77 166.815 365.193 168.43C365.743 170.469 365.616 172.466 364.813 174.378C364.221 175.738 363.46 176.927 362.487 177.99C358.723 181.898 352.634 183.045 347.813 180.666C345.191 179.434 343.288 177.48 342.274 174.591ZM347.728 176.205C348.363 176.757 349.04 177.225 349.758 177.564C351.704 178.457 353.734 178.627 355.763 178.117C357.793 177.607 359.569 176.502 360.795 174.675C362.36 172.339 362.529 169.875 361.218 167.325C359.611 164.266 357.159 162.736 354.368 162.991C352 163.162 350.181 163.799 348.786 164.776C347.771 165.498 346.883 166.433 346.291 167.58C344.726 170.596 345.276 173.91 347.728 176.205ZM422.915 19.7669C422.493 19.8091 422.07 19.8521 421.605 19.9366C420.166 20.0641 418.517 20.1915 416.868 20.319C416.277 20.3619 415.853 20.2344 415.6 19.6394C414.627 17.4297 413.866 15.2207 413.655 12.799C413.316 8.59284 413.486 4.429 414.374 0.350343H411.752C410.906 4.30154 410.779 8.33792 411.033 12.4166C411.202 14.9657 411.836 17.4297 412.893 19.7246C413.316 20.6168 413.655 21.509 414.077 22.4012C414.501 23.3357 415.05 24.1856 415.642 25.0356C415.98 25.5454 416.488 25.8003 417.122 25.8426C418.983 25.8849 420.885 25.9278 422.958 25.8003V22.8259C422.112 22.9533 421.266 22.9956 420.421 22.911C420.251 22.911 420.04 22.8681 419.955 22.5287C420.885 22.4435 421.9 22.3583 422.958 22.2738V19.7669H422.915ZM412.724 36.2096C410.314 41.1382 412.174 46.576 415.262 49.5081C415.98 50.1877 416.699 50.825 417.46 51.42C419.109 52.6946 420.928 53.5868 422.915 53.884V49.2103C422.746 49.2103 422.535 49.2532 422.366 49.2532C420.928 49.2955 418.602 48.6159 416.657 46.8738C414.035 44.5366 413.147 40.9255 414.543 37.6962C416.023 34.2125 418.729 32.3007 422.366 31.7056C422.535 31.6634 422.746 31.6634 422.915 31.6205V28.9438C422.239 29.029 421.478 29.1988 420.759 29.4114C417.165 30.5585 414.416 32.7682 412.724 36.2096ZM307.725 393.697C305.483 392.678 303.242 391.573 300.832 390.978C297.575 390.171 294.235 390.001 290.894 390.128C284.932 390.34 279.223 391.742 273.683 393.825C270.512 395.014 267.509 396.586 264.761 398.541C263.323 399.56 261.928 400.623 260.786 401.982C258.291 404.999 256.346 408.355 255.204 412.136C254.316 414.94 253.978 417.787 253.978 420.719C253.978 422.248 254.189 423.736 254.527 425.223H258.037C257.995 425.053 257.91 424.84 257.868 424.67C257.276 422.248 257.276 419.827 257.699 417.405C258.206 414.388 259.137 411.499 260.405 408.78C261.928 405.594 264.126 402.917 266.96 400.793C267.763 400.198 268.566 399.645 269.454 399.178C273.472 397.011 277.574 395.099 282.056 394.08C283.536 393.739 285.059 393.485 286.581 393.315C287.512 393.23 288.484 393.187 289.499 393.442C289.372 393.782 289.118 393.825 288.907 393.91C285.905 395.057 283.156 396.629 280.534 398.498C275.291 402.237 272.203 407.293 271.273 413.666C271.019 415.451 270.893 417.278 270.893 419.062C270.893 420.932 270.893 422.758 270.85 424.628C270.85 424.84 270.808 425.053 270.808 425.265H274.698C274.783 424.67 274.825 424.033 274.867 423.438C274.952 421.441 275.037 419.444 275.206 417.49C275.375 415.196 275.755 412.901 276.601 410.734C279.096 404.149 283.663 399.815 290.556 398.116C294.108 397.266 297.618 397.648 301.128 398.498C302.524 398.838 303.665 399.603 304.595 400.75C305.103 401.345 305.483 401.982 305.822 402.704C306.498 404.106 307.048 405.509 307.513 406.996C307.81 407.888 308.063 408.822 308.147 409.758C308.613 415.578 307.386 420.804 303.665 425.265H307.64C310.389 421.144 311.657 416.513 311.573 411.415C311.531 409.417 311.277 407.463 310.643 405.551C309.839 403.129 308.486 400.962 306.879 399.008C306.583 398.668 306.287 398.328 305.991 397.989C306.583 397.903 307.006 398.158 307.386 398.455C309.162 399.688 310.811 401.09 312.207 402.747C315.379 406.57 317.282 410.947 318.297 415.748C318.761 417.915 318.761 420.167 318.55 422.376C318.466 423.353 318.297 424.33 318.127 425.265H322.398C322.779 423.438 322.991 421.569 322.991 419.657C322.991 415.876 322.483 412.179 321.088 408.653C318.424 401.94 314.279 396.714 307.725 393.697ZM176.93 391.573C179.509 396.586 180.821 401.897 180.397 407.633C180.186 410.522 179.509 413.326 178.537 416.045C177.818 418.042 176.93 419.996 175.957 421.866C175.323 423.056 174.647 424.16 173.843 425.18H169.91C171.644 423.226 173.082 421.016 174.055 418.51C174.816 416.555 175.45 414.601 175.957 412.562C176.761 409.417 177.015 406.188 176.508 402.959C175.577 396.926 173.04 391.785 168.473 387.834C166.866 386.474 165.174 385.242 163.398 384.18C160.311 382.311 157.013 381.078 153.545 380.399C152.023 380.101 150.458 379.931 148.724 380.229C149.19 380.654 149.57 380.696 149.909 380.781C153.334 381.588 156.379 383.33 159.254 385.37C160.015 385.922 160.734 386.56 161.326 387.281C165.47 392.168 167.838 397.691 167.161 404.361C166.697 409.205 165.09 413.454 161.622 416.81C161.072 417.363 160.523 417.915 159.973 418.425C157.224 420.974 154.306 423.226 151.177 425.18H145.257C146.653 424.373 148.006 423.608 149.401 422.758C152.995 420.634 156.167 417.957 159.043 414.856C162.764 410.819 164.033 405.976 163.398 400.495C163.314 399.603 163.018 398.71 162.764 397.861C161.875 395.141 160.48 392.72 158.704 390.553C158.239 389.958 157.647 389.364 157.055 388.896C153.588 386.219 149.782 384.477 145.426 384.18C143.1 384.01 140.774 384.137 138.491 384.35C137.18 384.477 135.954 384.902 134.77 385.497C134.6 385.582 134.347 385.624 134.347 385.922C134.473 386.262 134.77 386.219 135.024 386.262C140.14 387.281 143.862 390.298 146.314 395.099C147.921 398.243 148.851 401.6 148.851 405.211C148.851 407.846 148.175 410.267 146.821 412.434C144.326 416.385 140.817 418.807 136.419 419.869C134.939 420.209 133.417 420.251 131.936 419.869C126.735 418.552 122.506 415.748 119.546 410.947C117.686 407.93 116.966 404.616 117.22 401.048C117.305 399.9 117.432 398.796 117.601 397.691C118.531 392.252 121.238 387.962 125.382 384.647C128.342 382.268 131.641 380.441 135.193 379.166C138.66 377.934 142.17 376.872 145.807 376.235C149.485 375.598 153.08 375.683 156.717 376.617C162.637 378.104 167.754 381.121 172.321 385.327C174.139 387.112 175.704 389.236 176.93 391.573ZM134.009 389.278C131.809 388.769 129.653 388.938 127.581 390.085C126.312 390.766 125.255 391.7 124.198 392.678C120.857 395.779 119.969 399.773 120.434 404.192C120.688 406.783 121.618 409.12 123.267 411.117C125.593 413.921 128.469 415.705 131.767 416.768C133.374 417.278 134.981 417.235 136.546 416.81C139.252 416.045 141.578 414.601 143.396 412.264C145.172 409.97 146.018 407.378 145.765 404.361C145.468 400.622 144.157 397.351 141.959 394.377C139.928 391.615 137.222 390.001 134.009 389.278ZM321.046 196.089C322.441 199.615 322.948 203.311 322.948 207.093C322.948 212.786 321.172 217.928 318.635 222.898C317.705 224.725 316.605 226.425 315.379 228.039C312.714 231.608 309.712 234.837 306.287 237.641C304.3 239.256 302.312 240.913 300.367 242.57C298.041 244.567 295.799 246.691 293.728 248.943C291.91 250.898 290.345 253.064 288.991 255.359C287.469 257.993 286.454 260.755 286.158 263.771C286.116 264.238 286.031 264.663 285.947 265.131C285.566 266.703 284.424 267.468 282.817 267.213C282.226 267.128 281.676 266.873 281.168 266.575C277.109 264.111 274.445 260.584 273.472 255.911C272.584 251.705 272.964 247.541 274.487 243.505C275.713 240.361 277.32 237.471 279.392 234.795C280.999 232.713 282.775 230.801 284.72 229.016C286.961 226.935 289.288 224.938 291.698 223.026C293.855 221.327 296.011 219.584 298.126 217.842C299.775 216.483 301.339 215.081 302.777 213.509C307.091 208.877 308.528 203.311 308.021 197.108C307.936 196.174 307.683 195.239 307.386 194.347C306.921 192.902 306.329 191.458 305.695 190.056C305.357 189.376 304.976 188.696 304.469 188.101C303.538 186.997 302.439 186.232 301.001 185.85C297.491 184.957 293.981 184.575 290.429 185.467C283.536 187.124 279.011 191.5 276.474 198.086C275.628 200.252 275.248 202.547 275.079 204.841C274.952 206.838 274.867 208.835 274.74 210.789C274.698 212.022 274.571 213.211 274.276 214.401C273.218 218.649 270.554 221.241 266.326 222.134C263.704 222.686 261.336 221.879 259.179 220.349C257.022 218.82 255.669 216.737 254.866 214.274C254.231 212.276 253.851 210.237 253.851 208.156C253.851 205.266 254.189 202.377 255.077 199.573C256.261 195.791 258.164 192.435 260.659 189.419C261.801 188.059 263.196 186.997 264.634 185.977C267.425 184.022 270.385 182.451 273.557 181.261C279.096 179.179 284.805 177.777 290.767 177.564C294.108 177.437 297.407 177.607 300.705 178.414C303.115 179.009 305.357 180.071 307.598 181.133C314.279 184.277 318.424 189.503 321.046 196.089ZM289.457 180.921C288.442 180.666 287.512 180.709 286.539 180.794C285.017 180.963 283.494 181.218 282.014 181.558C277.532 182.578 273.43 184.49 269.412 186.657C268.524 187.124 267.721 187.676 266.917 188.271C264.084 190.395 261.843 193.03 260.363 196.259C259.094 199.021 258.164 201.909 257.657 204.884C257.234 207.306 257.234 209.727 257.826 212.149C258.376 214.316 259.391 216.185 260.997 217.715C262.35 218.989 264 219.584 265.86 219.117C267.848 218.649 269.37 217.502 270.131 215.506C270.554 214.401 270.808 213.254 270.808 212.064C270.85 210.195 270.85 208.368 270.85 206.499C270.85 204.671 270.935 202.887 271.231 201.102C272.203 194.73 275.291 189.673 280.492 185.934C283.114 184.065 285.862 182.493 288.864 181.346C289.076 181.304 289.33 181.261 289.457 180.921ZM318.212 203.227C317.155 198.426 315.252 194.049 312.123 190.226C310.727 188.526 309.078 187.167 307.302 185.934C306.922 185.679 306.498 185.382 305.907 185.467C306.203 185.807 306.498 186.147 306.795 186.487C308.444 188.441 309.755 190.566 310.558 193.03C311.192 194.942 311.488 196.896 311.488 198.893C311.573 204.926 309.797 210.279 305.949 214.953C304.257 216.992 302.354 218.735 300.324 220.434C298.21 222.176 296.053 223.918 293.939 225.66C291.359 227.742 288.78 229.909 286.37 232.203C283.071 235.347 280.323 238.874 278.293 242.995C276.559 246.521 275.967 250.175 276.347 254.084C276.644 257.27 278.123 259.862 280.323 262.029C280.788 262.496 281.38 262.879 281.929 263.262C282.353 263.559 282.521 263.431 282.606 262.879C282.648 262.412 282.691 261.986 282.733 261.519C283.114 258.758 284.171 256.208 285.566 253.787C287.131 251.025 289.118 248.56 291.317 246.266C293.897 243.675 296.603 241.21 299.436 238.874C301.297 237.386 303.115 235.815 304.934 234.285C306.541 232.925 307.979 231.354 309.332 229.697C310.05 228.761 310.811 227.869 311.531 226.935C315.506 221.921 317.916 216.271 318.508 209.855C318.677 207.646 318.677 205.436 318.212 203.227ZM274.91 284.208C274.74 283.613 274.656 283.018 274.698 282.423C274.867 278.684 276.347 275.752 279.731 273.968C280.492 273.586 281.253 273.331 282.099 273.203C282.817 273.118 283.536 272.991 284.213 272.906C284.974 272.779 285.736 272.863 286.454 273.076C289.837 274.181 292.121 277.197 292.247 281.276C292.205 284.08 290.979 286.714 288.019 288.414C286.624 289.221 285.143 289.773 283.536 289.985C279.562 290.538 275.925 288.117 274.91 284.208ZM280.534 286.247C282.226 287.054 283.959 287.139 285.651 286.162C285.905 285.992 286.158 285.865 286.412 285.695C288.103 284.59 288.695 282.933 288.738 281.063C288.569 278.854 287.427 277.367 285.524 276.39C284.763 276.007 283.959 275.922 283.114 276.135C282.395 276.305 281.76 276.602 281.168 277.027C279.689 278.132 278.758 279.576 278.293 281.404C277.743 283.443 278.758 285.397 280.534 286.247ZM245.182 277.835C245.985 280.129 246.155 282.508 246.028 284.887C245.816 289.561 244.886 294.065 243.11 298.398C242.01 301.075 240.572 303.539 238.839 305.876C236.978 308.34 235.117 310.762 233.088 313.056C231.269 315.096 229.662 317.263 228.013 319.472C225.645 322.658 223.869 326.185 222.347 329.839C221.459 332.006 220.993 334.3 220.909 336.679C220.824 338.379 220.866 340.078 220.951 341.778C220.993 343.01 220.655 343.435 219.471 343.689C219.048 343.775 218.625 343.817 218.16 343.86C216.595 343.987 215.073 344.115 214.101 344.199C210.929 344.625 208.308 344.539 205.686 344.497C205.051 344.497 204.586 344.242 204.205 343.689C203.656 342.84 203.064 341.99 202.641 341.055C202.26 340.163 201.88 339.271 201.457 338.379C200.4 336.042 199.765 333.62 199.596 331.071C199.3 326.397 199.554 321.808 200.738 317.305C201.753 313.481 203.359 309.87 205.601 306.598C207.715 303.539 210.084 300.735 212.621 298.058C214.608 295.977 216.553 293.852 218.371 291.642C219.09 290.793 219.767 289.901 220.359 288.924C220.993 287.819 221.501 286.672 221.754 285.397C222.093 283.825 221.374 282.551 220.486 281.361C220.105 280.851 219.429 280.681 218.795 280.554C216.638 280.129 214.524 280.213 212.494 281.063C209.026 282.508 206.108 284.717 204.078 287.989C203.359 289.136 202.641 290.283 202.091 291.558C201.964 291.813 201.837 292.068 201.668 292.323C201.161 293.299 200.442 293.81 199.3 293.98C195.452 294.532 192.365 293.002 190.377 289.646C188.898 287.139 188.347 284.42 188.347 281.531C188.305 278.004 189.193 274.775 190.969 271.801C193.845 266.958 197.651 263.091 202.514 260.287C205.432 258.63 208.561 257.653 211.902 257.398C216.3 257.058 220.74 257.186 225.095 257.993C229.62 258.843 233.68 260.755 237.232 263.686C239.981 265.938 241.799 268.827 243.067 272.098C243.871 273.968 244.505 275.922 245.182 277.835ZM199.512 289.731C200.019 288.244 200.653 286.842 201.541 285.567C202.302 284.505 203.106 283.485 203.994 282.465C206.108 280.001 208.688 278.302 211.817 277.325C212.24 277.197 212.663 277.07 213.043 276.9C213.086 276.9 213.17 276.73 213.128 276.687C213.086 276.602 213.001 276.517 212.916 276.517C212.536 276.475 212.155 276.475 212.071 276.475C209.533 276.559 207.504 277.282 205.686 278.599C202.302 281.021 200.188 284.293 199.173 288.329C199.089 288.754 199.089 289.178 199.046 289.646C199.046 289.731 199.131 289.816 199.173 289.901C199.343 289.985 199.47 289.858 199.512 289.731ZM217.695 278.217C216.849 277.707 216.258 277.622 215.623 277.707C214.904 277.792 214.185 277.962 213.509 278.132C211.521 278.684 209.576 279.279 207.927 280.511C204.966 282.635 202.641 285.397 200.992 288.669C200.78 289.093 200.611 289.561 200.442 290.028C200.358 290.283 200.315 290.58 200.273 290.878C200.273 290.963 200.315 291.09 200.4 291.133C200.526 291.218 200.653 291.133 200.738 291.005C201.288 289.858 201.88 288.754 202.429 287.607C203.19 286.162 204.121 284.887 205.305 283.782C206.658 282.508 208.096 281.361 209.66 280.384C211.267 279.406 212.959 278.726 214.819 278.471C215.623 278.345 216.511 278.302 217.695 278.217ZM217.019 340.376C214.397 340.588 211.14 340.928 208.476 341.14C208.561 341.48 208.772 341.523 208.942 341.523C209.83 341.608 210.675 341.565 211.521 341.438C212.579 341.268 213.593 341.098 214.65 340.928C215.2 340.843 215.707 340.716 216.258 340.63C217.019 340.63 217.019 340.461 217.019 340.376ZM218.583 329.287C219.217 326.822 220.148 324.486 221.374 322.276C223.277 318.877 225.645 315.818 228.182 312.844C229.62 311.187 231.016 309.487 232.368 307.788C232.707 307.406 233.383 306.343 233.468 306.216C233.595 306.088 232.538 306.896 232.284 307.151C230.846 308.68 229.451 310.21 227.971 311.697C225.306 314.458 223.108 317.602 221.205 320.959C219.683 323.678 218.625 326.609 218.076 329.711C218.034 329.966 217.907 330.263 218.16 330.518C218.414 330.136 218.456 329.711 218.583 329.287ZM235.878 306.386C235.329 306.896 227.379 316.413 227.167 316.625C225.391 318.877 223.742 321.214 222.22 323.678C221.163 325.42 220.359 327.29 219.683 329.244C219.217 330.646 219.048 332.091 219.048 333.535C219.048 333.832 218.964 334.13 219.217 334.342C219.387 333.45 219.556 332.558 219.81 331.666C220.063 330.773 220.317 329.881 220.655 329.031C222.135 325.378 223.869 321.851 226.195 318.622C226.66 317.985 227.083 317.347 227.548 316.71C227.717 316.54 235.625 307.873 235.878 306.386ZM239.262 270.229C238.162 268.232 236.766 266.533 234.948 265.131C231.777 262.667 228.225 261.094 224.292 260.329C220.486 259.565 216.595 259.395 212.705 259.608C208.603 259.82 204.84 261.179 201.457 263.559C198.412 265.726 195.875 268.402 193.803 271.504C192.872 272.863 192.111 274.35 191.562 275.922C190.335 279.364 190.335 282.806 191.731 286.205C192.154 287.267 192.703 288.201 193.549 289.009C194.268 289.688 195.114 290.156 196.128 290.198C196.89 290.24 197.101 289.985 197.101 289.306C197.101 287.776 197.355 286.289 197.947 284.887C199.3 281.701 201.161 278.897 203.952 276.772C208.603 273.288 213.593 272.948 218.752 275.328C221.417 276.517 223.15 278.642 224.165 281.361C224.672 282.635 224.842 283.995 224.63 285.397C224.376 287.054 223.742 288.583 222.939 290.028C222.22 291.26 221.374 292.365 220.444 293.427C218.583 295.637 216.638 297.718 214.65 299.8C212.24 302.35 209.957 304.984 207.927 307.873C206.023 310.55 204.628 313.481 203.656 316.625C202.176 321.511 201.88 326.482 202.302 331.538C202.514 333.96 203.275 336.212 204.247 338.379C204.501 338.974 204.882 339.143 205.516 339.059C207.166 338.888 208.815 338.761 210.252 338.676C211.86 338.421 213.255 338.379 214.65 338.294C215.031 338.294 215.412 338.251 215.792 338.209C216.173 338.167 216.3 337.996 216.258 337.614C216.131 336.764 216.004 335.872 215.919 335.022C215.58 330.306 216.553 325.802 218.541 321.553C220.444 317.518 222.854 313.821 225.857 310.507C227.421 308.765 228.986 307.065 230.592 305.323C232.919 302.817 235.033 300.183 237.02 297.379C239.219 294.319 240.657 290.963 241.503 287.309C242.771 281.276 242.179 275.625 239.262 270.229ZM226.364 360.727C225.814 366.76 220.866 371.986 214.439 372.666C211.309 373.006 208.519 372.029 206.024 370.074C205.263 369.48 204.501 368.842 203.825 368.162C200.738 365.231 198.877 359.792 201.288 354.864C202.979 351.422 205.686 349.255 209.28 348.108C210.252 347.811 211.267 347.598 212.113 347.598C214.481 347.429 216.553 347.896 218.498 348.873C219.09 349.17 219.725 349.51 220.317 349.765C224.588 351.805 226.787 356.266 226.364 360.727ZM220.824 362.086C221.543 360.515 221.839 358.858 221.459 357.115C220.909 354.397 219.302 352.485 216.849 351.295C214.989 350.36 212.959 350.062 210.887 350.402C207.25 350.997 204.501 352.952 203.064 356.393C201.71 359.622 202.556 363.233 205.178 365.571C207.123 367.313 209.449 367.992 210.887 367.95C215.877 367.695 219.344 365.401 220.824 362.086ZM222.389 366.463C222.135 366.421 221.966 366.59 221.754 366.76C220.444 367.78 219.175 368.757 217.864 369.777C217.737 369.904 217.399 369.904 217.526 370.329C219.471 369.522 221.078 368.375 222.347 366.718C222.389 366.675 222.389 366.548 222.389 366.463ZM222.642 366.166C222.474 366.166 222.389 366.25 222.389 366.463C222.6 366.463 222.642 366.335 222.642 366.166ZM223.066 365.953C222.896 365.953 222.727 365.953 222.685 366.123C222.812 366.038 222.939 365.995 223.066 365.953ZM223.657 362.724C223.657 362.767 223.657 362.809 223.657 362.851C223.742 362.851 223.869 362.851 223.869 362.767C225.095 360.897 225.264 358.943 224.334 356.606C224.334 357.88 224.376 358.815 224.25 359.75C224.165 360.769 223.869 361.747 223.657 362.724ZM223.53 363.574C223.615 363.361 223.742 363.149 223.657 362.894C223.362 363.064 223.446 363.319 223.53 363.574ZM223.319 363.574C223.404 363.574 223.446 363.574 223.53 363.616C223.488 363.616 223.446 363.574 223.446 363.574C223.404 363.531 223.362 363.574 223.319 363.574ZM176.93 179.137C179.509 184.15 180.821 189.461 180.397 195.196C180.186 198.086 179.509 200.89 178.537 203.609C177.818 205.606 176.93 207.561 175.957 209.43C174.35 212.489 172.152 215.038 169.614 217.29C167.077 219.584 164.413 221.666 161.622 223.621C159.296 225.278 157.013 226.935 154.814 228.761C151.854 231.226 149.655 234.327 148.048 237.896C146.948 240.318 146.314 242.868 146.314 245.587C146.314 248.178 146.821 250.643 148.048 252.937C148.682 254.126 149.443 255.231 150.162 256.378C150.416 256.803 150.712 257.228 150.924 257.695C151.388 258.672 151.093 259.65 150.162 260.16C149.57 260.5 148.936 260.627 148.302 260.584C145.299 260.372 142.255 260.16 139.252 259.862C137.053 259.608 134.939 258.885 132.951 257.78C130.202 256.251 128.046 254.042 126.693 251.067C123.098 243.122 123.394 235.474 128.131 228.166C130.287 224.853 132.867 221.879 135.827 219.33C138.152 217.333 140.647 215.506 143.269 213.976C145.299 212.786 147.329 211.639 149.359 210.45C152.953 208.325 156.125 205.649 159 202.547C162.721 198.51 163.99 193.667 163.356 188.186C163.272 187.294 162.975 186.402 162.721 185.552C161.833 182.833 160.438 180.411 158.662 178.244C158.197 177.65 157.605 177.055 157.013 176.587C153.545 173.91 149.739 172.169 145.384 171.871C143.058 171.701 140.732 171.829 138.449 172.041C137.138 172.168 135.912 172.593 134.727 173.188C134.558 173.273 134.305 173.316 134.305 173.613C134.431 173.953 134.727 173.91 134.981 173.953C140.098 174.973 143.819 177.989 146.272 182.79C147.879 185.934 148.809 189.291 148.809 192.902C148.809 195.537 148.133 197.958 146.779 200.125C144.284 204.076 140.774 206.498 136.376 207.561C134.897 207.9 133.374 207.943 131.894 207.561C126.693 206.243 122.464 203.439 119.504 198.638C117.643 195.622 116.924 192.307 117.178 188.738C117.263 187.591 117.39 186.486 117.559 185.382C118.489 179.944 121.195 175.652 125.34 172.339C128.3 169.959 131.598 168.132 135.15 166.858C138.618 165.626 142.128 164.563 145.765 163.926C149.443 163.288 153.037 163.374 156.674 164.308C162.595 165.795 167.712 168.812 172.279 173.018C174.139 174.675 175.704 176.8 176.93 179.137ZM134.009 176.842C131.809 176.332 129.653 176.502 127.581 177.65C126.312 178.329 125.255 179.264 124.198 180.241C120.857 183.343 119.969 187.336 120.434 191.755C120.688 194.347 121.618 196.684 123.267 198.681C125.593 201.485 128.469 203.269 131.767 204.331C133.374 204.841 134.981 204.799 136.546 204.374C139.252 203.609 141.578 202.164 143.396 199.828C145.172 197.534 146.018 194.942 145.765 191.925C145.468 188.186 144.157 184.915 141.959 181.941C139.928 179.179 137.222 177.564 134.009 176.842ZM176.508 190.566C175.577 184.532 173.04 179.392 168.473 175.44C166.866 174.081 165.174 172.848 163.398 171.786C160.311 169.917 157.013 168.685 153.545 168.005C152.023 167.707 150.458 167.537 148.724 167.835C149.19 168.26 149.57 168.302 149.909 168.387C153.334 169.194 156.379 170.937 159.254 172.976C160.015 173.528 160.734 174.165 161.326 174.888C165.47 179.774 167.838 185.297 167.161 191.968C166.697 196.811 165.09 201.06 161.622 204.416C161.072 204.968 160.523 205.521 159.973 206.031C156.971 208.835 153.757 211.257 150.289 213.338C147.836 214.783 145.384 216.185 143.016 217.715C138.152 220.774 134.051 224.725 130.753 229.569C127.243 234.753 126.355 240.403 128.004 246.521C129.399 251.662 132.486 255.104 137.518 256.463C138.026 256.591 138.576 256.718 139.125 256.803C141.62 257.186 144.157 257.228 146.695 257.356C146.779 257.356 146.864 257.228 146.906 257.186C146.948 256.803 146.653 256.591 146.441 256.336C142.593 250.983 141.874 245.162 143.946 238.959C145.511 234.2 148.217 230.206 151.938 227.062C153.376 225.872 154.856 224.768 156.379 223.705C158.323 222.303 160.311 220.987 162.256 219.542C164.667 217.757 167.035 215.845 169.149 213.678C171.264 211.512 172.913 209.048 174.055 206.201C174.816 204.247 175.45 202.292 175.957 200.252C176.761 196.981 177.015 193.794 176.508 190.566ZM130.837 280.808C130.541 279.959 130.414 279.066 130.329 278.345C130.118 275.54 130.837 273.203 132.359 271.164C134.812 267.892 138.11 266.363 142.043 266.235C144.2 266.193 146.314 266.703 148.302 267.637C149.57 268.232 150.627 269.082 151.515 270.187C152.573 271.504 153.334 273.034 153.757 274.648C154.306 276.687 154.179 278.684 153.376 280.596C152.784 281.956 152.023 283.145 151.05 284.208C147.287 288.117 141.198 289.264 136.376 286.884C133.755 285.652 131.852 283.698 130.837 280.808ZM136.292 282.423C136.927 282.975 137.603 283.443 138.322 283.782C140.267 284.675 142.297 284.845 144.326 284.335C146.356 283.825 148.133 282.72 149.359 280.894C150.924 278.557 151.093 276.093 149.782 273.543C148.175 270.484 145.722 268.954 142.931 269.209C140.563 269.38 138.745 270.017 137.349 270.994C136.334 271.716 135.446 272.651 134.854 273.798C133.29 276.814 133.839 280.129 136.292 282.423ZM259.264 8.04009C261.42 9.56959 263.789 10.3773 266.41 9.82451C270.639 8.9323 273.303 6.34087 274.36 2.09184C274.487 1.49746 274.614 0.902447 274.698 0.30743H270.808C270.724 1.28482 270.512 2.2193 270.174 3.11151C269.37 5.06629 267.89 6.25568 265.902 6.72324C264.084 7.14789 262.435 6.59578 261.04 5.3212C259.56 3.91917 258.587 2.2193 258.037 0.30743H254.527C254.654 0.860175 254.824 1.41228 254.993 1.96438C255.796 4.429 257.149 6.55351 259.264 8.04009ZM273.472 43.5599C274.487 48.2336 277.109 51.7595 281.168 54.2241C281.676 54.5213 282.226 54.7762 282.817 54.8614C284.382 55.074 285.566 54.3093 285.947 52.7791C286.031 52.3545 286.116 51.8869 286.158 51.42C286.497 48.4033 287.512 45.5992 288.991 43.0071C290.345 40.6706 291.867 38.5461 293.728 36.592C295.842 34.34 298.041 32.2155 300.367 30.2184C302.312 28.5615 304.3 26.9045 306.287 25.2905C309.755 22.4858 312.715 19.257 315.379 15.6882C316.605 14.0735 317.705 12.3743 318.635 10.547C320.284 7.27535 321.637 3.87689 322.356 0.350343H318.085C317.112 5.57612 314.872 10.2921 311.531 14.5411C310.811 15.4756 310.05 16.3678 309.332 17.3023C308.021 18.9598 306.541 20.5316 304.934 21.8914C303.115 23.4209 301.297 24.9926 299.436 26.4799C296.603 28.7741 293.897 31.2381 291.317 33.8724C289.076 36.1244 287.131 38.6313 285.566 41.3931C284.171 43.8148 283.114 46.321 282.733 49.1258C282.691 49.5927 282.648 50.018 282.606 50.4849C282.564 51.0376 282.353 51.1651 281.929 50.8673C281.38 50.4849 280.788 50.1025 280.323 49.6356C278.081 47.4688 276.644 44.8767 276.347 41.6903C275.967 37.8236 276.601 34.1273 278.293 30.6008C280.323 26.4799 283.071 22.9533 286.37 19.8091C288.78 17.5149 291.359 15.3481 293.939 13.2665C296.096 11.5244 298.21 9.82451 300.324 8.04009C302.354 6.38314 304.257 4.59873 305.949 2.5594C306.541 1.83693 307.048 1.11509 307.556 0.350343H303.581C303.327 0.647532 303.073 0.94472 302.819 1.24255C301.382 2.81432 299.817 4.21636 298.168 5.57612C296.053 7.31826 293.897 9.05976 291.74 10.7596C289.33 12.6715 287.004 14.6686 284.763 16.7502C282.817 18.5346 281.084 20.4464 279.435 22.5287C277.362 25.163 275.713 28.0946 274.529 31.2381C272.964 35.1899 272.584 39.3531 273.472 43.5599ZM286.454 60.6392C289.837 61.7441 292.121 64.7608 292.247 68.8395C292.205 71.6435 290.979 74.2779 288.019 75.9778C286.624 76.7848 285.143 77.3369 283.536 77.5495C279.562 78.0594 275.925 75.6377 274.91 71.771C274.74 71.1766 274.656 70.5816 274.698 69.9866C274.867 66.248 276.347 63.3165 279.731 61.5321C280.492 61.1497 281.253 60.8942 282.099 60.7667C282.817 60.6822 283.536 60.5547 284.213 60.4695C284.974 60.3421 285.693 60.4272 286.454 60.6392ZM285.524 63.9538C284.763 63.5714 283.959 63.4862 283.114 63.6989C282.395 63.8686 281.76 64.1658 281.168 64.5911C279.689 65.6953 278.758 67.1402 278.293 68.9669C277.743 71.0492 278.758 72.961 280.534 73.8103C282.226 74.618 283.959 74.7025 285.651 73.7258C285.905 73.5554 286.158 73.428 286.412 73.2582C288.103 72.1534 288.695 70.4964 288.738 68.6275C288.611 66.3755 287.427 64.8883 285.524 63.9538ZM245.182 65.3981C245.985 67.6924 246.155 70.0718 246.028 72.4512C245.816 77.1249 244.886 81.6282 243.11 85.9618C242.01 88.6384 240.572 91.103 238.839 93.4395C236.978 95.9041 235.117 98.3258 233.088 100.62C231.269 102.659 229.662 104.826 228.013 107.036C225.645 110.222 223.869 113.749 222.347 117.402C221.459 119.57 220.993 121.864 220.909 124.243C220.824 125.943 220.866 127.642 220.951 129.342C220.993 130.573 220.655 130.999 219.471 131.254C219.048 131.338 218.625 131.381 218.16 131.423C216.595 131.551 215.073 131.678 214.101 131.763C210.929 132.188 208.308 132.103 205.686 132.061C205.051 132.061 204.586 131.806 204.205 131.254C203.656 130.404 203.064 129.554 202.641 128.619C202.26 127.727 201.88 126.835 201.457 125.943C200.4 123.605 199.765 121.184 199.596 118.635C199.3 113.961 199.554 109.372 200.738 104.869C201.753 101.045 203.359 97.4336 205.601 94.162C207.715 91.103 210.084 88.2989 212.621 85.6223C214.608 83.5401 216.553 81.4155 218.371 79.2065C219.09 78.3566 219.767 77.4643 220.359 76.4876C220.993 75.3827 221.501 74.2356 221.754 72.961C222.093 71.3886 221.374 70.1141 220.486 68.9247C220.105 68.4148 219.429 68.2445 218.795 68.117C216.638 67.6924 214.524 67.7775 212.494 68.6275C209.026 70.0718 206.108 72.2808 204.078 75.5525C203.359 76.6996 202.641 77.8467 202.091 79.1213C201.964 79.3762 201.837 79.6311 201.668 79.886C201.161 80.8634 200.442 81.3733 199.3 81.543C195.452 82.0957 192.365 80.5662 190.377 77.2094C188.898 74.7025 188.347 71.9837 188.347 69.0944C188.305 65.5678 189.193 62.3391 190.969 59.3647C193.845 54.5213 197.651 50.6553 202.514 47.8512C205.432 46.1936 208.561 45.2168 211.902 44.9619C216.3 44.6218 220.74 44.7493 225.095 45.5563C229.62 46.4062 233.68 48.3181 237.232 51.2496C239.981 53.5016 241.799 56.3909 243.067 59.6625C243.871 61.5321 244.505 63.4862 245.182 65.3981ZM199.512 77.2946C200.019 75.8074 200.653 74.4053 201.541 73.1308C202.302 72.0688 203.106 71.0492 203.994 70.0295C206.108 67.5649 208.688 65.8657 211.817 64.8883C212.24 64.7608 212.663 64.6334 213.043 64.4636C213.086 64.4636 213.17 64.2933 213.128 64.251C213.086 64.1658 213.001 64.0813 212.916 64.0813C212.536 64.0383 212.155 64.0383 212.071 64.0383C209.533 64.1235 207.504 64.846 205.686 66.1629C202.302 68.5846 200.188 71.8562 199.173 75.8926C199.089 76.3172 199.089 76.7425 199.046 77.2094C199.046 77.2946 199.131 77.3798 199.173 77.4643C199.343 77.5495 199.47 77.4221 199.512 77.2946ZM217.695 65.7805C216.849 65.2707 216.258 65.1855 215.623 65.2707C214.904 65.3558 214.185 65.5256 213.509 65.6953C211.521 66.248 209.576 66.8424 207.927 68.0747C204.966 70.1992 202.641 72.961 200.992 76.2327C200.78 76.6573 200.611 77.1249 200.442 77.5918C200.358 77.8467 200.315 78.1445 200.273 78.4417C200.273 78.5269 200.315 78.6544 200.4 78.6966C200.526 78.7818 200.653 78.6966 200.738 78.5692C201.288 77.4221 201.88 76.3172 202.429 75.1701C203.19 73.7258 204.121 72.4512 205.305 71.3464C206.658 70.0718 208.096 68.9247 209.66 67.9473C211.267 66.9699 212.959 66.2903 214.819 66.0354C215.623 65.9079 216.511 65.8657 217.695 65.7805ZM217.019 127.94C214.397 128.152 211.14 128.492 208.476 128.704C208.561 129.044 208.772 129.087 208.942 129.087C209.83 129.171 210.675 129.129 211.521 129.002C212.579 128.832 213.593 128.661 214.65 128.492C215.2 128.407 215.707 128.279 216.258 128.195C217.019 128.195 217.019 128.024 217.019 127.94ZM218.583 116.85C219.217 114.386 220.148 112.049 221.374 109.84C223.277 106.441 225.645 103.382 228.182 100.407C229.62 98.7505 231.016 97.0512 232.368 95.3514C232.707 94.969 233.383 93.9071 233.468 93.7796C233.595 93.6521 232.538 94.4592 232.284 94.7141C230.846 96.2436 229.451 97.7737 227.971 99.2603C225.306 102.022 223.108 105.166 221.205 108.522C219.683 111.242 218.625 114.174 218.076 117.275C218.034 117.53 217.907 117.828 218.16 118.082C218.414 117.7 218.456 117.275 218.583 116.85ZM235.878 93.9493C235.329 94.4592 227.379 103.976 227.167 104.189C225.391 106.441 223.742 108.777 222.22 111.242C221.163 112.984 220.359 114.853 219.683 116.808C219.217 118.21 219.048 119.654 219.048 121.099C219.048 121.396 218.964 121.694 219.217 121.906C219.387 121.014 219.556 120.122 219.81 119.23C220.063 118.337 220.317 117.445 220.655 116.595C222.135 112.941 223.869 109.415 226.195 106.186C226.66 105.549 227.083 104.911 227.548 104.274C227.717 104.104 235.625 95.4366 235.878 93.9493ZM239.262 57.7929C238.162 55.7958 236.766 54.0966 234.948 52.6946C231.777 50.23 228.225 48.6582 224.292 47.8935C220.486 47.1287 216.595 46.959 212.705 47.171C208.603 47.3836 204.84 48.7434 201.457 51.1222C198.412 53.289 195.875 55.9662 193.803 59.0675C192.872 60.4272 192.111 61.9145 191.562 63.4862C190.335 66.9276 190.335 70.369 191.731 73.7681C192.154 74.83 192.703 75.7651 193.549 76.5721C194.268 77.2523 195.114 77.7193 196.128 77.7622C196.89 77.8044 197.101 77.5495 197.101 76.87C197.101 75.3398 197.355 73.8532 197.947 72.4512C199.3 69.2648 201.161 66.46 203.952 64.3362C208.603 60.8519 213.593 60.5118 218.752 62.8912C221.417 64.0813 223.15 66.2051 224.165 68.9247C224.672 70.1992 224.842 71.559 224.63 72.961C224.376 74.618 223.742 76.1475 222.939 77.5918C222.22 78.8241 221.374 79.929 220.444 80.9909C218.583 83.2006 216.638 85.2822 214.65 87.3638C212.24 89.9129 209.957 92.5473 207.927 95.4366C206.023 98.1132 204.628 101.045 203.656 104.189C202.176 109.075 201.88 114.046 202.302 119.102C202.514 121.524 203.275 123.776 204.247 125.943C204.501 126.538 204.882 126.707 205.516 126.622C207.166 126.452 208.815 126.325 210.252 126.24C211.86 125.985 213.255 125.943 214.65 125.857C215.031 125.857 215.412 125.815 215.792 125.772C216.173 125.73 216.3 125.56 216.258 125.178C216.131 124.328 216.004 123.436 215.919 122.586C215.58 117.87 216.553 113.367 218.541 109.117C220.444 105.081 222.854 101.385 225.857 98.0709C227.421 96.3288 228.986 94.6295 230.592 92.8874C232.919 90.3805 235.033 87.7462 237.02 84.9421C239.219 81.8831 240.657 78.5269 241.503 74.8729C242.771 68.8395 242.179 63.189 239.262 57.7929ZM203.825 155.726C200.738 152.795 198.877 147.356 201.288 142.428C202.979 138.986 205.686 136.819 209.28 135.672C210.252 135.374 211.267 135.162 212.113 135.162C214.481 134.992 216.553 135.46 218.498 136.437C219.09 136.734 219.725 137.074 220.317 137.329C224.588 139.369 226.745 143.787 226.364 148.248C225.814 154.281 220.866 159.508 214.439 160.187C211.309 160.527 208.519 159.55 206.024 157.596C205.263 157.043 204.544 156.406 203.825 155.726ZM223.657 150.288C223.657 150.33 223.657 150.373 223.657 150.415C223.742 150.415 223.869 150.415 223.869 150.33C225.095 148.461 225.264 146.506 224.334 144.17C224.334 145.444 224.376 146.379 224.25 147.313C224.165 148.334 223.869 149.31 223.657 150.288ZM223.53 151.138C223.615 150.925 223.742 150.712 223.657 150.457C223.362 150.628 223.446 150.883 223.53 151.138ZM223.319 151.138C223.404 151.138 223.446 151.138 223.53 151.18C223.488 151.18 223.446 151.138 223.446 151.138C223.404 151.095 223.362 151.138 223.319 151.138ZM222.685 153.687C222.812 153.644 222.939 153.559 223.066 153.516C222.939 153.516 222.769 153.474 222.685 153.687ZM222.389 154.026C222.6 154.026 222.642 153.899 222.642 153.729C222.474 153.729 222.389 153.814 222.389 154.026ZM221.754 154.324C220.444 155.344 219.175 156.321 217.864 157.341C217.737 157.468 217.399 157.468 217.526 157.893C219.471 157.086 221.078 155.939 222.347 154.281C222.389 154.239 222.389 154.111 222.389 154.026C222.093 153.984 221.924 154.154 221.754 154.324ZM205.22 153.134C207.166 154.876 209.491 155.556 210.929 155.513C215.877 155.259 219.344 153.007 220.824 149.65C221.543 148.079 221.839 146.421 221.459 144.68C220.909 141.96 219.302 140.048 216.849 138.859C214.989 137.924 212.959 137.626 210.887 137.967C207.25 138.561 204.501 140.516 203.064 143.957C201.753 147.186 202.598 150.798 205.22 153.134ZM132.951 45.2591C134.939 46.364 137.053 47.1287 139.252 47.3413C142.255 47.6808 145.257 47.8512 148.302 48.0632C148.978 48.1061 149.612 47.9786 150.162 47.6385C151.05 47.1287 151.388 46.1513 150.924 45.1739C150.712 44.707 150.416 44.3246 150.162 43.8571C149.443 42.7099 148.682 41.6051 148.048 40.4157C146.779 38.1637 146.314 35.6568 146.314 33.0654C146.314 30.3459 146.948 27.7967 148.048 25.375C149.655 21.8062 151.896 18.7049 154.814 16.2403C157.013 14.4136 159.296 12.7567 161.622 11.0997C164.371 9.14494 167.077 7.06334 169.614 4.7691C171.179 3.36706 172.574 1.87984 173.843 0.265158H169.91C169.657 0.562346 169.446 0.817262 169.149 1.11509C167.035 3.28188 164.667 5.19375 162.257 6.97816C160.311 8.42247 158.323 9.73996 156.379 11.142C154.856 12.2468 153.376 13.3088 151.938 14.4982C148.217 17.6424 145.511 21.6365 143.946 26.3947C141.916 32.5979 142.593 38.4186 146.441 43.7719C146.61 44.0268 146.906 44.2394 146.906 44.6218C146.821 44.6641 146.737 44.7915 146.695 44.7915C144.157 44.6641 141.62 44.6218 139.125 44.2394C138.576 44.1543 138.068 44.0268 137.518 43.8993C132.529 42.4973 129.399 39.0982 128.004 33.9576C126.355 27.8396 127.243 22.1886 130.753 17.0051C134.051 12.1617 138.152 8.21047 143.016 5.15147C145.426 3.62198 147.879 2.2193 150.289 0.774989C150.585 0.605259 150.881 0.392616 151.177 0.222885H145.257C144.623 0.605259 143.946 0.987633 143.311 1.32709C140.69 2.85659 138.195 4.68391 135.869 6.68097C132.909 9.23013 130.329 12.2039 128.173 15.5178C123.437 22.9533 123.098 30.6008 126.693 38.5461C128.046 41.5205 130.16 43.6873 132.951 45.2591ZM151.515 57.7929C152.573 59.1098 153.334 60.6392 153.757 62.2539C154.306 64.2933 154.179 66.2903 153.376 68.2022C152.784 69.562 152.023 70.7513 151.05 71.8139C147.287 75.7228 141.198 76.87 136.376 74.4905C133.797 73.216 131.852 71.2189 130.837 68.3296C130.541 67.4797 130.414 66.5875 130.329 65.8657C130.118 63.0616 130.837 60.7244 132.359 58.6851C134.812 55.4135 138.11 53.884 142.043 53.7565C144.2 53.7142 146.314 54.2241 148.302 55.1586C149.57 55.8388 150.627 56.6881 151.515 57.7929ZM149.824 61.1068C148.217 58.0478 145.765 56.5183 142.974 56.7732C140.605 56.943 138.787 57.5803 137.391 58.5576C136.376 59.2801 135.488 60.2146 134.897 61.3617C133.29 64.3362 133.839 67.6924 136.292 69.9443C136.927 70.4964 137.603 70.964 138.322 71.3041C140.267 72.1963 142.297 72.366 144.326 71.8562C146.356 71.3464 148.133 70.2415 149.359 68.4148C150.966 66.1206 151.135 63.6137 149.824 61.1068ZM109.609 302.307C111.004 305.833 111.512 309.53 111.512 313.311C111.512 319.004 109.736 324.145 107.198 329.116C106.268 330.944 105.169 332.643 103.942 334.258C101.278 337.826 98.2756 341.055 94.8504 343.86C92.8627 345.474 90.8757 347.131 88.9301 348.788C86.6046 350.785 84.3632 352.909 82.2908 355.161C80.4727 357.115 78.9083 359.282 77.555 361.576C76.0327 364.211 75.0178 366.973 74.7214 369.989C74.6793 370.456 74.5945 370.882 74.5104 371.348C74.1298 372.921 72.9881 373.686 71.381 373.431C70.7888 373.346 70.2393 373.091 69.7318 372.793C65.6724 370.329 63.0084 366.803 62.0356 362.129C61.1476 357.923 61.5281 353.759 63.0504 349.723C64.2769 346.579 65.8834 343.689 67.9558 341.013C69.5629 338.931 71.3389 337.019 73.2839 335.234C75.5252 333.153 77.8508 331.156 80.2611 329.244C82.4183 327.545 84.5749 325.802 86.6888 324.06C88.3379 322.701 89.9029 321.299 91.3404 319.727C95.6536 315.096 97.0918 309.53 96.5843 303.327C96.4996 302.392 96.2458 301.457 95.95 300.565C95.4847 299.12 94.8925 297.676 94.2582 296.274C93.9203 295.594 93.5397 294.914 93.0323 294.32C92.1016 293.215 91.0026 292.45 89.5644 292.068C86.0545 291.176 82.5451 290.793 78.9925 291.685C72.1001 293.342 67.5752 297.718 65.0381 304.304C64.1921 306.471 63.8116 308.765 63.6426 311.06C63.5158 313.057 63.431 315.053 63.3041 317.008C63.2621 318.24 63.1352 319.43 62.8388 320.619C61.7818 324.868 59.1178 327.459 54.8888 328.352C52.2668 328.904 49.8992 328.097 47.7427 326.567C45.5854 325.038 44.2327 322.956 43.4288 320.491C42.7945 318.494 42.414 316.455 42.414 314.373C42.414 311.484 42.7525 308.595 43.6405 305.791C44.8243 302.009 46.7278 298.653 49.2222 295.637C50.364 294.277 51.7594 293.215 53.1976 292.195C55.9884 290.24 58.9483 288.669 62.1203 287.479C67.6594 285.397 73.3686 283.995 79.331 283.782C82.672 283.655 85.9703 283.825 89.2686 284.632C91.6789 285.227 93.9203 286.289 96.1611 287.352C102.842 290.495 106.987 295.722 109.609 302.307ZM78.0203 287.139C77.0055 286.884 76.0747 286.926 75.102 287.012C73.5797 287.181 72.0574 287.436 70.5778 287.776C66.095 288.796 61.9935 290.708 57.9761 292.875C57.0881 293.342 56.2842 293.894 55.481 294.489C52.6474 296.614 50.4067 299.248 48.9265 302.477C47.6579 305.239 46.7278 308.128 46.2197 311.102C45.7971 313.524 45.7971 315.945 46.3893 318.367C46.9388 320.534 47.9537 322.403 49.5607 323.933C50.9141 325.207 52.5633 325.802 54.4241 325.335C56.4111 324.868 57.9334 323.721 58.6945 321.724C59.1178 320.619 59.3715 319.472 59.3715 318.282C59.4136 316.413 59.4136 314.585 59.4136 312.717C59.4136 310.889 59.4984 309.105 59.7942 307.32C60.767 300.947 63.8536 295.891 69.0555 292.152C71.6768 290.283 74.4256 288.711 77.4281 287.564C77.6397 287.521 77.8935 287.479 78.0203 287.139ZM106.776 309.445C105.718 304.644 103.815 300.268 100.686 296.444C99.2904 294.744 97.6413 293.385 95.8653 292.153C95.4847 291.898 95.062 291.6 94.4698 291.685C94.7656 292.025 95.062 292.365 95.3578 292.705C97.007 294.659 98.3183 296.784 99.1215 299.248C99.7558 301.16 100.052 303.114 100.052 305.111C100.136 311.144 98.3603 316.498 94.5119 321.172C92.8207 323.211 90.9178 324.952 88.8881 326.652C86.7735 328.395 84.617 330.136 82.5024 331.878C79.9232 333.96 77.3433 336.127 74.933 338.421C71.6347 341.566 68.8859 345.092 66.8562 349.213C65.1222 352.74 64.5306 356.394 64.9112 360.302C65.207 363.489 66.6872 366.08 68.8859 368.247C69.3513 368.715 69.9435 369.097 70.493 369.48C70.9156 369.777 71.0852 369.649 71.1694 369.097C71.2121 368.63 71.2541 368.205 71.2962 367.737C71.6768 364.976 72.7344 362.426 74.1298 360.005C75.6942 357.243 77.6818 354.779 79.8805 352.485C82.4604 349.893 85.1665 347.429 88 345.092C89.8602 343.605 91.6789 342.033 93.497 340.503C95.1041 339.143 96.5416 337.571 97.895 335.915C98.6141 334.98 99.3752 334.087 100.094 333.153C104.069 328.14 106.479 322.489 107.071 316.073C107.24 313.864 107.24 311.654 106.776 309.445ZM80.8112 387.494C80.7685 390.298 79.5426 392.932 76.5822 394.632C75.1867 395.439 73.7065 395.991 72.1001 396.204C68.1247 396.714 64.4879 394.292 63.4731 390.426C63.3041 389.831 63.2194 389.236 63.2621 388.641C63.431 384.902 64.9112 381.97 68.2937 380.186C69.0555 379.804 69.8166 379.549 70.6619 379.421C71.381 379.337 72.1001 379.209 72.7764 379.124C73.5376 378.997 74.2987 379.082 75.0178 379.294C78.3582 380.399 80.6844 383.458 80.8112 387.494ZM77.3012 387.239C77.1323 385.029 75.9906 383.543 74.0871 382.565C73.3259 382.183 72.5227 382.098 71.6768 382.311C70.9583 382.48 70.3241 382.778 69.7318 383.203C68.2516 384.308 67.3215 385.752 66.8562 387.579C66.3067 389.661 67.3215 391.573 69.0975 392.423C70.7888 393.23 72.5227 393.315 74.2139 392.337C74.4677 392.168 74.7214 392.04 74.9751 391.87C76.667 390.808 77.2592 389.151 77.3012 387.239ZM31.6731 378.274C30.4045 375.003 28.5864 372.071 25.8376 369.862C22.2429 366.973 18.2261 365.061 13.7013 364.169C9.34543 363.319 4.94746 363.233 0.507426 363.574C0.338495 363.574 0.168925 363.616 -6.30319e-06 363.616V365.953C0.422642 365.911 0.803216 365.868 1.2265 365.868C5.11703 365.655 9.00693 365.826 12.8133 366.59C16.7459 367.355 20.2979 368.97 23.4694 371.391C25.2881 372.793 26.6836 374.493 27.7826 376.49C30.7003 381.886 31.2925 387.536 29.9819 393.485C29.1359 397.139 27.6984 400.538 25.4991 403.554C23.5115 406.316 21.3976 408.992 19.0714 411.499C17.4643 413.199 15.9 414.94 14.3356 416.683C11.9674 419.275 9.97972 422.163 8.28849 425.223H10.9525C12.5596 422.631 14.3777 420.209 16.4922 418C17.9297 416.513 19.3679 414.94 20.8054 413.454C21.0591 413.199 22.116 412.391 21.9892 412.519C21.9471 412.646 21.228 413.709 20.8902 414.091C19.4947 415.79 18.1414 417.49 16.7032 419.147C15.012 421.101 13.4476 423.141 11.9674 425.265H13.9971C14.5893 424.5 15.1388 423.693 15.7731 422.971C15.9421 422.758 23.892 413.241 24.4843 412.731C24.2305 414.176 16.3226 422.886 16.1958 423.098C15.731 423.736 15.3078 424.373 14.843 425.01C14.7583 425.095 14.7162 425.223 14.6314 425.307H16.9569C18.4799 423.268 20.0022 421.271 21.6513 419.402C23.681 417.108 25.5418 414.686 27.402 412.222C29.1359 409.927 30.5735 407.42 31.6731 404.744C33.4491 400.41 34.4219 395.906 34.5908 391.233C34.6756 388.854 34.5067 386.474 33.7455 384.18C33.0685 382.141 32.4343 380.186 31.6731 378.274ZM11.502 396.161C12.3479 394.717 12.9402 393.187 13.1939 391.53C13.4049 390.128 13.236 388.811 12.7285 387.494C11.6716 384.774 9.93764 382.693 7.31569 381.461C4.8206 380.313 2.4103 379.804 0.0420672 379.974V382.735C0.25371 382.735 0.422642 382.693 0.634285 382.693C0.719069 382.693 1.09964 382.693 1.48022 382.735C1.56437 382.735 1.64915 382.82 1.69122 382.906C1.69122 382.948 1.64915 383.118 1.60708 383.118C1.18379 383.288 0.803216 383.415 0.380568 383.543C0.25371 383.585 0.168925 383.627 0.0847783 383.67V384.987C0.761143 384.774 1.43751 384.562 2.11451 384.392C2.83295 384.222 3.50995 384.053 4.22902 383.967C4.86332 383.882 5.4549 383.925 6.30083 384.477C5.11703 384.562 4.22902 384.605 3.38309 384.732C2.24137 384.902 1.14172 385.242 0.0847783 385.71V387.791C0.422642 387.621 0.803216 387.452 1.18379 387.281C3.21352 386.431 5.32804 386.347 7.48463 386.772C8.11892 386.899 8.75321 387.069 9.17649 387.579C10.1066 388.726 10.7836 390.001 10.4451 391.615C10.1914 392.847 9.68393 394.037 9.04964 395.141C8.45742 396.119 7.78105 397.011 7.06198 397.861C5.24389 400.07 3.29831 402.195 1.31065 404.276C0.888001 404.701 0.507426 405.126 0.0847783 405.594V409.545C1.09964 408.355 2.15658 407.208 3.25623 406.061C5.24389 403.979 7.18884 401.897 9.04964 399.688C9.89493 398.498 10.7836 397.393 11.502 396.161ZM109.609 89.8707C111.004 93.3972 111.512 97.0935 111.512 100.875C111.512 106.568 109.736 111.71 107.198 116.68C106.268 118.507 105.169 120.207 103.942 121.821C101.278 125.39 98.2756 128.619 94.8504 131.423C92.8627 133.038 90.8757 134.695 88.9301 136.352C86.6046 138.349 84.3632 140.473 82.2908 142.725C80.4727 144.68 78.9083 146.846 77.555 149.141C76.0327 151.775 75.0178 154.536 74.7214 157.553C74.6793 158.02 74.5945 158.445 74.5104 158.913C74.1298 160.484 72.9881 161.249 71.381 160.994C70.7888 160.91 70.2393 160.655 69.7318 160.357C65.6724 157.893 63.0084 154.366 62.0356 149.693C61.1476 145.487 61.5281 141.323 63.0504 137.286C64.2769 134.143 65.8834 131.254 67.9558 128.577C69.5629 126.495 71.3389 124.583 73.2839 122.798C75.5252 120.717 77.8508 118.72 80.2611 116.808C82.4183 115.108 84.5749 113.367 86.6888 111.624C88.3379 110.265 89.9029 108.863 91.3404 107.291C95.6536 102.659 97.0918 97.0935 96.5843 90.8903C96.4996 89.9559 96.2458 89.0207 95.95 88.1285C95.4847 86.6842 94.8925 85.2399 94.2582 83.8379C93.9203 83.1577 93.5397 82.4781 93.0323 81.8831C92.1016 80.7783 91.0026 80.0135 89.5644 79.6311C86.0545 78.7389 82.5451 78.3565 78.9925 79.2488C72.1001 80.9057 67.5752 85.2822 65.0381 91.8677C64.1921 94.0345 63.8116 96.3288 63.6426 98.623C63.5158 100.62 63.431 102.617 63.3041 104.571C63.2621 105.804 63.1352 106.993 62.8388 108.183C61.7818 112.431 59.1178 115.023 54.8888 115.916C52.2668 116.468 49.8992 115.661 47.7427 114.131C45.5854 112.602 44.2327 110.52 43.4288 108.056C42.7945 106.058 42.414 104.019 42.414 101.937C42.414 99.0483 42.7525 96.159 43.6405 93.355C44.8243 89.5735 46.7278 86.2167 49.2222 83.2006C50.364 81.8408 51.7594 80.7783 53.1976 79.7586C55.9884 77.8044 58.9483 76.2327 62.1203 75.0426C67.6594 72.961 73.3686 71.559 79.331 71.3464C82.672 71.2189 85.9703 71.3886 89.2686 72.1963C91.6789 72.7907 93.9203 73.8532 96.1611 74.9152C102.842 78.0594 106.987 83.2851 109.609 89.8707ZM78.0203 74.7025C77.0055 74.4476 76.0747 74.4905 75.102 74.5751C73.5797 74.7455 72.0574 75.0004 70.5778 75.3398C66.095 76.3601 61.9935 78.272 57.9761 80.4388C57.0881 80.9057 56.2842 81.4585 55.481 82.0528C52.6474 84.1773 50.4067 86.8117 48.9265 90.0411C47.6579 92.8022 46.7278 95.6915 46.2197 98.6659C45.7971 101.088 45.7971 103.509 46.3893 105.931C46.9388 108.098 47.9537 109.967 49.5607 111.497C50.9141 112.771 52.5633 113.367 54.4241 112.899C56.4111 112.431 57.9334 111.284 58.6945 109.287C59.1178 108.183 59.3715 107.036 59.3715 105.846C59.4136 103.976 59.4136 102.15 59.4136 100.28C59.4136 98.4533 59.4984 96.6689 59.7942 94.8845C60.767 88.5109 63.8536 83.4555 69.0555 79.7163C71.6768 77.8467 74.4256 76.2749 77.4281 75.1278C77.6397 75.0849 77.8935 75.0426 78.0203 74.7025ZM106.776 97.0083C105.718 92.2078 103.815 87.8314 100.686 84.0076C99.2904 82.3077 97.6413 80.9486 95.8653 79.7163C95.4847 79.4614 95.062 79.1642 94.4698 79.2488C94.7656 79.5889 95.062 79.929 95.3578 80.2684C97.007 82.2232 98.3183 84.3477 99.1215 86.8117C99.7558 88.7236 100.052 90.6783 100.052 92.6748C100.136 98.7082 98.3603 104.061 94.5119 108.735C92.8207 110.774 90.9178 112.517 88.8881 114.216C86.7735 115.958 84.617 117.7 82.5024 119.442C79.9232 121.524 77.3433 123.691 74.933 125.985C71.6347 129.129 68.8859 132.656 66.8562 136.777C65.1222 140.303 64.5306 143.957 64.9112 147.866C65.207 151.052 66.6872 153.644 68.8859 155.811C69.3513 156.278 69.9435 156.661 70.493 157.043C70.9156 157.341 71.0852 157.213 71.1694 156.661C71.2121 156.194 71.2541 155.768 71.2962 155.301C71.6768 152.54 72.7344 149.99 74.1298 147.568C75.6942 144.807 77.6818 142.342 79.8805 140.048C82.4604 137.457 85.1665 134.992 88 132.656C89.8602 131.168 91.6789 129.597 93.497 128.067C95.1041 126.707 96.5416 125.135 97.895 123.478C98.6141 122.543 99.3752 121.651 100.094 120.717C104.069 115.703 106.479 110.052 107.071 103.637C107.24 101.427 107.24 99.218 106.776 97.0083ZM63.4731 177.99C63.3041 177.395 63.2194 176.8 63.2621 176.205C63.431 172.466 64.9112 169.534 68.2937 167.75C69.0555 167.368 69.8166 167.113 70.6619 166.985C71.381 166.9 72.1001 166.773 72.7764 166.687C73.5376 166.56 74.2987 166.645 75.0178 166.858C78.4009 167.962 80.6844 170.979 80.8112 175.057C80.7685 177.862 79.5426 180.496 76.5822 182.196C75.1867 183.003 73.7065 183.555 72.1001 183.768C68.1247 184.32 64.4879 181.898 63.4731 177.99ZM69.0975 180.029C70.7888 180.836 72.5227 180.921 74.2139 179.944C74.4677 179.774 74.7214 179.647 74.9751 179.476C76.667 178.372 77.2592 176.714 77.3012 174.845C77.1323 172.636 75.9906 171.149 74.0871 170.172C73.3259 169.789 72.5227 169.704 71.6768 169.917C70.9583 170.087 70.3241 170.384 69.7318 170.809C68.2516 171.914 67.3215 173.358 66.8562 175.185C66.3067 177.225 67.3215 179.179 69.0975 180.029ZM33.7455 171.616C34.5488 173.91 34.7177 176.29 34.5908 178.669C34.3798 183.343 33.4491 187.846 31.6731 192.18C30.5735 194.857 29.1359 197.321 27.402 199.658C25.5418 202.122 23.681 204.544 21.6513 206.838C19.8326 208.877 18.2261 211.044 16.5763 213.254C14.2087 216.44 12.4327 219.967 10.9104 223.621C10.0218 225.788 9.55707 228.082 9.47228 230.461C9.3875 232.161 9.43021 233.86 9.51436 235.56C9.55707 236.792 9.21857 237.217 8.03477 237.471C7.61148 237.557 7.18884 237.599 6.72348 237.641C5.15911 237.769 3.63681 237.896 2.66402 237.981C1.73393 238.067 0.888001 238.151 0.0420672 238.194V235.22H0.0847783C1.14172 235.05 2.15658 234.88 3.21352 234.71C3.76367 234.625 4.2711 234.498 4.8206 234.413C5.53968 234.37 5.53968 234.2 5.53968 234.158C3.84845 234.285 1.90287 234.498 -6.30319e-06 234.667V232.203C1.09964 232.075 2.11451 232.033 3.12937 231.991C3.50995 231.991 3.89052 231.948 4.2711 231.906C4.65167 231.863 4.77853 231.693 4.73646 231.311C4.6096 230.461 4.48274 229.569 4.39796 228.719C4.05946 224.003 5.03225 219.499 7.0199 215.251C8.92278 211.215 11.3331 207.518 14.3356 204.204C15.9 202.462 17.4643 200.762 19.0714 199.021C21.3976 196.514 23.5115 193.88 25.4991 191.076C27.6984 188.017 29.1359 184.66 29.9819 181.006C31.3346 175.057 30.743 169.407 27.7826 164.011C26.6836 162.014 25.2881 160.315 23.4694 158.913C20.2979 156.449 16.7459 154.876 12.8133 154.111C9.00693 153.347 5.11703 153.177 1.2265 153.389C0.803216 153.389 0.380568 153.432 -6.30319e-06 153.474V151.138C0.168925 151.138 0.338495 151.095 0.507426 151.095C4.90539 150.755 9.34543 150.883 13.7013 151.69C18.2261 152.54 22.2856 154.452 25.8376 157.383C28.5864 159.635 30.4045 162.524 31.6731 165.795C32.4343 167.75 33.0685 169.704 33.7455 171.616ZM7.14676 223.068C7.78105 220.604 8.71114 218.267 9.93764 216.058C11.8405 212.659 14.2087 209.6 16.7459 206.626C18.1834 204.968 19.5789 203.269 20.9322 201.57C21.2707 201.188 21.9471 200.125 22.0319 199.998C22.1587 199.87 21.1012 200.678 20.8474 200.933C19.4099 202.462 18.0145 203.992 16.5343 205.478C13.8702 208.24 11.6716 211.384 9.76807 214.741C8.24578 217.46 7.18884 220.391 6.63933 223.493C6.59662 223.748 6.46976 224.046 6.72348 224.3C6.97719 223.918 7.0199 223.493 7.14676 223.068ZM24.4422 200.168C23.892 200.678 15.9421 210.195 15.731 210.407C13.955 212.659 12.3059 214.996 10.7836 217.46C9.726 219.202 8.92278 221.072 8.24578 223.026C7.78105 224.428 7.61148 225.872 7.61148 227.317C7.61148 227.614 7.52734 227.912 7.78105 228.124C7.94999 227.232 8.11892 226.34 8.37263 225.448C8.62635 224.555 8.88007 223.663 9.21857 222.813C10.6988 219.159 12.4327 215.633 14.7583 212.404C15.2236 211.767 15.6463 211.129 16.1116 210.492C16.2806 210.322 24.1885 201.655 24.4422 200.168ZM9.00693 187.124C9.93764 186.062 10.7836 184.958 11.502 183.725C12.3479 182.28 12.9402 180.751 13.1939 179.094C13.4049 177.692 13.236 176.375 12.7285 175.057C11.6716 172.339 9.93764 170.257 7.31569 169.025C4.8206 167.878 2.4103 167.368 0.0420672 167.537V170.299C0.25371 170.299 0.422642 170.257 0.634285 170.257C0.719069 170.257 1.09964 170.257 1.48022 170.299C1.56437 170.299 1.64915 170.384 1.69122 170.469C1.69122 170.512 1.64915 170.682 1.60708 170.682C1.18379 170.851 0.803216 170.979 0.380568 171.106C0.25371 171.149 0.168925 171.191 0.0847783 171.234V172.551C0.761143 172.339 1.43751 172.126 2.11451 171.956C2.83295 171.786 3.50995 171.616 4.22902 171.532C4.86332 171.446 5.4549 171.489 6.30083 172.041C5.11703 172.126 4.22902 172.169 3.38309 172.296C2.24137 172.466 1.14172 172.806 0.0847783 173.273V175.355C0.422642 175.185 0.803216 175.015 1.18379 174.845C3.21352 173.996 5.32804 173.91 7.48463 174.336C8.11892 174.463 8.75321 174.633 9.17649 175.143C10.1066 176.29 10.7836 177.564 10.4451 179.179C10.1914 180.411 9.68393 181.601 9.04964 182.706C8.45742 183.682 7.78105 184.575 7.06198 185.424C5.24389 187.634 3.29831 189.758 1.31065 191.84C0.888001 192.265 0.507426 192.69 0.0847783 193.157V197.108C1.09964 195.919 2.15658 194.772 3.25623 193.625C5.15911 191.416 7.14676 189.333 9.00693 187.124ZM0.0420672 266.321V261.647C4.69375 261.265 7.94999 259.055 9.3875 255.826C10.1066 254.254 10.4024 252.597 10.0218 250.855C9.47228 248.136 7.8652 246.224 5.41282 245.034C3.72159 244.185 1.90287 243.887 0.0420672 244.099V241.423C0.25371 241.38 0.465353 241.38 0.676358 241.38C3.04459 241.21 5.11703 241.678 7.06198 242.655C7.6542 242.952 8.28849 243.292 8.88007 243.547C13.1512 245.587 15.3078 250.005 14.9272 254.466C14.3777 260.5 9.43021 265.726 3.00252 266.405C1.98765 266.533 1.01486 266.49 0.0420672 266.321ZM12.2211 256.506C12.2211 256.549 12.2211 256.591 12.2211 256.633C12.3059 256.633 12.4327 256.633 12.4327 256.549C13.6586 254.679 13.8282 252.724 12.8975 250.388C12.8975 251.662 12.9402 252.597 12.8133 253.532C12.7285 254.552 12.4327 255.528 12.2211 256.506ZM12.0942 257.356C12.179 257.143 12.3059 256.931 12.2211 256.676C11.9253 256.846 12.0094 257.101 12.0942 257.356ZM11.8826 257.356C11.9674 257.356 12.0094 257.356 12.0942 257.398C12.0522 257.398 12.0094 257.356 12.0094 257.356C11.9674 257.313 11.9253 257.356 11.8826 257.356ZM11.2483 259.905C11.3752 259.862 11.502 259.777 11.6289 259.735C11.502 259.735 11.3331 259.692 11.2483 259.905ZM10.9525 260.245C11.1642 260.245 11.2062 260.117 11.2062 259.947C11.0373 259.947 10.9525 260.032 10.9525 260.245ZM6.08919 264.111C8.03477 263.304 9.64122 262.157 10.9104 260.5C10.9525 260.457 10.9525 260.329 10.9525 260.245C10.6988 260.202 10.5292 260.372 10.3182 260.542C9.00693 261.562 7.73834 262.539 6.42769 263.559C6.30083 263.686 5.96233 263.686 6.08919 264.111ZM6.6814 25.163C7.10405 25.1201 7.56941 25.0778 7.99206 24.9926C9.17649 24.7377 9.55707 24.3131 9.47228 23.0808C9.3875 21.3815 9.3875 19.6817 9.43021 17.9825C9.51436 15.603 9.97972 13.3511 10.8677 11.142C12.39 7.48799 14.166 3.96144 16.5343 0.774989C16.7032 0.647532 16.8301 0.477801 16.9569 0.30743H14.5466C12.3479 3.40933 10.6561 6.8507 9.21857 10.3773C8.88007 11.2272 8.58428 12.1194 8.37263 13.0116C8.11892 13.9038 7.99206 14.796 7.78105 15.6882C7.48463 15.4756 7.61148 15.1784 7.61148 14.8806C7.61148 13.394 7.78105 11.9919 8.24578 10.5893C8.92278 8.67738 9.726 6.80843 10.7836 5.02402C11.7984 3.40933 12.8554 1.83693 13.9971 0.30743H12.0522C11.3331 1.37001 10.614 2.47422 9.97972 3.62198C8.71113 5.83104 7.78105 8.16755 7.18884 10.6322C7.10405 11.0568 7.0199 11.4821 6.76619 11.8645C6.51247 11.6096 6.63933 11.3546 6.6814 11.0568C7.23091 7.95555 8.28849 5.06629 9.81078 2.30449C10.1914 1.6672 10.614 0.987633 10.9946 0.30743H8.33056C7.8652 1.11509 7.44255 1.96438 7.06198 2.77204C5.03225 7.02043 4.10217 11.5244 4.44003 16.2403C4.48274 17.1325 4.65167 17.9825 4.77853 18.8324C4.8206 19.2148 4.69375 19.3845 4.31317 19.4268C3.9326 19.4697 3.55202 19.4697 3.17145 19.512C2.15658 19.5971 1.14172 19.6394 0.0420672 19.7669V22.2308C1.94494 22.0611 3.89052 21.8914 5.58175 21.721C5.58175 21.8062 5.58175 21.9759 4.86332 21.9759C4.31317 22.0611 3.80574 22.1886 3.25623 22.2738C2.19866 22.4435 1.14172 22.6132 0.126852 22.7836H0.0847783V25.7574C0.930075 25.7151 1.77601 25.6299 2.66402 25.5025C3.59473 25.4179 5.15911 25.2905 6.6814 25.163ZM0.0420672 53.884V49.2103C4.69375 48.8279 7.94999 46.6189 9.3875 43.3895C10.1066 41.8177 10.4024 40.1608 10.0218 38.4186C9.47228 35.6998 7.8652 33.7879 5.41282 32.5979C3.72159 31.7479 1.90287 31.4507 0.0420672 31.6634V28.9868C0.25371 28.9438 0.465353 28.9438 0.676358 28.9438C3.04459 28.7741 5.11703 29.2417 7.06198 30.2184C7.6542 30.5163 8.28849 30.8557 8.88007 31.1106C13.1512 33.1506 15.3505 37.6116 14.9272 42.0727C14.3777 48.1061 9.43021 53.3319 3.00252 54.0114C1.98765 54.0966 1.01486 54.0543 0.0420672 53.884ZM12.2211 44.0697C12.2211 44.112 12.2211 44.1543 12.2211 44.1972C12.3059 44.1972 12.4327 44.1972 12.4327 44.112C13.6586 42.2424 13.8282 40.2882 12.8975 37.9511C12.8975 39.2257 12.9402 40.1608 12.8133 41.0953C12.7285 42.1149 12.4327 43.0923 12.2211 44.0697ZM12.0942 44.919C12.179 44.707 12.3059 44.4944 12.2211 44.2394C11.9253 44.4092 12.0094 44.6641 12.0942 44.919ZM11.8826 44.919C11.9674 44.919 12.0094 44.919 12.0942 44.9619C12.0522 44.9619 12.0094 44.919 12.0094 44.919C11.9674 44.8767 11.9253 44.919 11.8826 44.919ZM11.2483 47.4688C11.3752 47.4259 11.502 47.3413 11.6289 47.2984C11.502 47.2984 11.3331 47.2562 11.2483 47.4688ZM10.9525 47.8083C11.1642 47.8083 11.2062 47.6808 11.2062 47.5111C11.0373 47.5111 10.9525 47.5963 10.9525 47.8083ZM6.08919 51.6749C8.03477 50.8673 9.64122 49.7201 10.9104 48.0632C10.9525 48.0209 10.9525 47.8935 10.9525 47.8083C10.6988 47.766 10.5292 47.9357 10.3182 48.1061C9.00693 49.1258 7.73834 50.1025 6.42769 51.1222C6.30083 51.2496 5.96233 51.2496 6.08919 51.6749Z" fill="white" fill-opacity="0.25"/>
</g>
<defs>
<clipPath id="clip0_2_160">
<rect width="423" height="425" fill="white"/>
</clipPath>
</defs>
</svg>
