<svg width="149" height="102" viewBox="0 0 149 102" fill="none" xmlns="http://www.w3.org/2000/svg">
<mask id="mask0_3_363" style="mask-type:luminance" maskUnits="userSpaceOnUse" x="0" y="0" width="149" height="102">
<path d="M0 0H149V101.674H0V0Z" fill="white"/>
</mask>
<g mask="url(#mask0_3_363)">
<path d="M19.7721 49.5466C17.4988 46.4975 16.2172 42.7199 16.1663 38.9164C16.1138 35.1128 17.2909 31.3031 19.48 28.1918C21.9104 24.7374 25.5789 22.1731 29.6604 21.0808C33.7392 19.9868 38.2005 20.3722 42.0323 22.1494C41.9639 16.4782 44.2169 10.8144 48.1605 6.73853C52.1037 2.66431 57.6912 0.22769 63.3612 0.108459C69.2143 -0.0135985 75.0781 2.34448 79.2178 6.48368C83.3576 10.6234 85.7157 16.4884 85.5936 22.3415C89.2768 17.7237 94.8869 14.6948 100.768 14.1512C106.649 13.6071 112.721 15.5532 117.189 19.4149C120.496 22.2759 122.919 26.1422 124.051 30.365C125.182 34.5879 125.016 39.1492 123.582 43.2788C126.861 42.1079 130.464 41.8633 133.871 42.5775C137.277 43.2935 140.477 44.9661 143.01 47.3541C145.539 49.7444 147.396 52.8422 148.305 56.2027C149.215 59.5627 149.177 63.1741 148.197 66.5137C146.84 71.1423 143.646 75.2063 139.468 77.6181C135.289 80.0298 130.174 80.7644 125.487 79.6252C125.056 84.5431 123.022 89.3067 119.768 93.0193C116.516 96.7324 112.06 99.3742 107.242 100.447C101.581 101.707 95.4599 100.769 90.4375 97.8699C85.4145 94.9694 81.5409 90.1374 79.8027 84.6058C78.9008 89.4452 76.2212 93.9308 72.3883 97.0189C68.5554 100.106 63.5996 101.768 58.6801 101.617C53.4406 101.455 48.2928 99.2312 44.5881 95.5254C40.8818 91.8191 38.6559 86.6712 38.4943 81.4335C36.0594 85.3144 32.3067 88.3529 28.0025 89.9266C23.6994 91.5021 18.8719 91.6021 14.5067 90.2086C9.90527 88.74 5.85139 85.6151 3.25938 81.5408C0.667359 77.4655 -0.444151 72.4702 0.176871 67.6806C0.796762 62.8921 3.14467 58.3438 6.68771 55.0635C10.233 51.7838 14.9486 49.7936 19.7721 49.5466Z" fill="#CBECFF"/>
</g>
<path d="M142.13 46.5823C142.263 50.3553 141.3 54.1735 139.274 57.3634C136.786 61.2834 132.788 64.2218 128.302 65.4231C123.817 66.6262 118.884 66.082 114.768 63.9319C112.519 69.2182 108.05 73.519 102.681 75.5657C98.5017 77.1587 93.8195 77.4011 89.4978 76.2433C85.1777 75.086 81.2414 72.5347 78.4177 69.0651C75.8212 74.2305 70.8027 78.1097 65.1491 79.3184C60.5087 80.3118 55.5077 79.5224 51.3984 77.1485C47.2875 74.7758 44.1033 70.8428 42.6414 66.3261C37.3975 73.8767 28.5054 78.763 19.3195 79.1399C13.7003 79.371 8.02186 77.973 3.15145 75.1611C2.13035 74.5706 1.15615 73.9061 0.2136 73.1992C0.624978 76.1534 1.65907 79.0235 3.26107 81.5409C5.85309 85.6151 9.90414 88.74 14.505 90.2075C18.8702 91.601 23.6983 91.5021 28.0025 89.9267C32.305 88.3529 36.0583 85.3145 38.4932 81.4318C38.6548 86.6712 40.8801 91.8174 44.5864 95.5238C48.2928 99.2301 53.4423 101.455 58.6818 101.617C63.6013 101.768 68.5554 100.107 72.3883 97.019C76.2212 93.9308 78.9008 89.4435 79.801 84.6042C81.5398 90.1374 85.4145 94.9694 90.4358 97.87C95.4588 100.769 101.58 101.707 107.241 100.447C112.059 99.3742 116.516 96.7325 119.77 93.0205C123.024 89.3068 125.054 84.5431 125.485 79.6253C130.173 80.7656 135.289 80.0299 139.468 77.6181C143.646 75.2063 146.84 71.1423 148.197 66.5137C149.176 63.1741 149.215 59.561 148.305 56.201C147.396 52.8422 145.541 49.7456 143.01 47.3559C142.727 47.088 142.431 46.832 142.13 46.5823Z" fill="#A1D8F3"/>
<path d="M51.0289 10.4506C52.1477 8.77511 53.6096 7.32907 55.2981 6.22773C57.2939 4.92635 59.5966 4.1132 61.9586 3.78885C63.0136 3.64306 64.0986 3.59672 65.1344 3.84705C66.1685 4.09682 67.1545 4.67602 67.7292 5.57224C68.1423 6.21473 68.3243 6.99624 68.2717 7.75796C68.2197 8.52025 67.9389 9.26051 67.5009 9.88605C66.9466 10.676 66.16 11.2739 65.3339 11.77C64.5072 12.2673 63.6318 12.6758 62.804 13.172C60.6002 14.4897 58.801 16.3811 56.7051 17.8633C56.1943 18.2238 55.6665 18.56 55.0929 18.8115C54.5216 19.0618 53.9046 19.2245 53.2807 19.2228C52.1008 19.2217 50.9447 18.599 50.2785 17.6288C49.5947 16.6342 49.4348 15.3554 49.5744 14.1569C49.7298 12.8228 50.2361 11.5327 51.0289 10.4506Z" fill="#E4F5FC"/>
<path d="M21.9075 34.7534C22.3059 32.2954 23.8961 30.1627 25.8218 28.5834C27.8861 26.8915 30.4041 25.7218 33.0526 25.3991C33.8516 25.3019 34.6648 25.2816 35.453 25.4443C36.2396 25.606 37.0008 25.9574 37.5647 26.5293C37.997 26.9672 38.3056 27.5272 38.4395 28.1279C38.5745 28.7286 38.5367 29.3671 38.327 29.9463C38.0434 30.7391 37.4602 31.3918 36.8132 31.9303C36.1656 32.47 35.4457 32.9136 34.7778 33.43C32.6599 35.0659 31.1398 37.3675 29.0727 39.069C28.58 39.4736 28.0533 39.8459 27.4758 40.1166C26.8966 40.3856 26.2598 40.55 25.6224 40.528C25.003 40.5048 24.3933 40.3099 23.8667 39.981C23.3417 39.6527 22.8998 39.1955 22.5709 38.6706C21.8522 37.5246 21.6905 36.0916 21.9075 34.7563V34.7534Z" fill="#E4F5FC"/>
<path d="M94.2484 20.9774C95.8526 19.072 98.3124 18.0582 100.777 17.6926C103.417 17.2999 106.178 17.5909 108.617 18.673C109.352 19.0008 110.06 19.4003 110.652 19.9444C111.245 20.4869 111.717 21.1808 111.908 21.9606C112.055 22.5585 112.03 23.197 111.838 23.7819C111.644 24.3662 111.283 24.8945 110.809 25.2844C110.158 25.8179 109.321 26.0784 108.489 26.2095C107.657 26.3389 106.811 26.3502 105.974 26.4508C103.315 26.7666 100.829 27.9606 98.1819 28.359C97.5507 28.454 96.9088 28.5031 96.2731 28.4376C95.6374 28.3709 95.0079 28.1861 94.471 27.8397C93.9517 27.5024 93.5285 27.0209 93.2465 26.47C92.964 25.9185 92.8187 25.2986 92.8069 24.6792C92.7792 23.3264 93.3759 22.0143 94.2473 20.9785L94.2484 20.9774Z" fill="#E4F5FC"/>
<path d="M62.1841 56.0773C62.1508 57.9013 62.8871 59.7282 64.18 61.0144C65.1344 61.9626 66.3781 62.6169 67.7004 62.8661C69.0227 63.1159 70.419 62.9588 71.6526 62.4237C72.8873 61.8885 73.9553 60.9765 74.6752 59.8401C75.3968 58.7043 75.7675 57.3504 75.7285 56.0049L62.1841 56.0773Z" fill="#231F20"/>
<path d="M84.0459 54.6081C83.6034 54.6013 83.2384 54.2623 83.2005 53.8226C83.1062 52.9179 83.2717 52.0003 83.6809 51.1871C84.0922 50.374 84.7325 49.6947 85.5179 49.2336C86.7865 48.486 88.3586 48.3696 89.7232 48.924C90.6743 49.311 91.4789 50.0016 92.0067 50.8831C92.5351 51.7663 92.7645 52.8061 92.6554 53.8288C92.6323 54.0571 92.5204 54.2662 92.3413 54.4103C92.1627 54.5544 91.9344 54.6228 91.7055 54.5979C91.4789 54.5736 91.2693 54.4583 91.1269 54.2798C90.9828 54.1006 90.9173 53.8724 90.9421 53.6441C91.0122 53.0027 90.8607 52.3235 90.529 51.7691C90.1973 51.2148 89.6707 50.7582 89.0728 50.5135C88.228 50.1705 87.1776 50.2474 86.3904 50.7102C85.896 51.0012 85.4744 51.4521 85.215 51.9641C84.9562 52.4772 84.8472 53.0779 84.9071 53.6497C84.9359 53.8955 84.8573 54.1402 84.6918 54.3233C84.5273 54.5052 84.2917 54.6098 84.0459 54.6081Z" fill="#231F20"/>
<path d="M46.5184 54.6081C46.0777 54.6013 45.7109 54.2623 45.6731 53.8226C45.5787 52.9179 45.7443 52.0003 46.1545 51.1871C46.5648 50.374 47.205 49.6947 47.9905 49.2336C49.2585 48.486 50.8311 48.3696 52.1958 48.924C53.1468 49.311 53.9515 50.0016 54.4793 50.8831C55.0071 51.7663 55.237 52.8061 55.128 53.8288C55.1048 54.0571 54.9912 54.2662 54.8138 54.4103C54.6347 54.5544 54.4064 54.6228 54.1798 54.5979C53.9515 54.5736 53.7418 54.4583 53.5977 54.2798C53.4553 54.1006 53.3898 53.8724 53.4147 53.6441C53.4842 53.0027 53.3316 52.3235 53.0016 51.7691C52.6682 51.2148 52.1432 50.7582 51.5454 50.5135C50.7017 50.1705 49.6501 50.2474 48.863 50.7102C48.3685 51.0012 47.9464 51.4521 47.6876 51.9641C47.4288 52.4772 47.3209 53.0779 47.3807 53.6497C47.4084 53.8955 47.3299 54.1402 47.1655 54.3233C46.9999 54.5052 46.7642 54.6098 46.5184 54.6081Z" fill="#231F20"/>
<path d="M52.1432 62.105C52.1432 64.2901 49.5551 66.0599 46.3625 66.0599C44.8277 66.0599 43.3585 65.644 42.2735 64.9021C41.1897 64.1601 40.5806 63.1537 40.5806 62.105C40.5806 61.055 41.1897 60.0498 42.2735 59.3078C43.3585 58.5664 44.8277 58.15 46.3625 58.15C49.5551 58.15 52.1432 59.9204 52.1432 62.105Z" fill="#F3637A"/>
<path d="M97.8863 62.105C97.8863 63.1537 97.2772 64.1601 96.1934 64.9021C95.1079 65.644 93.6392 66.0599 92.1045 66.0599C88.9112 66.0599 86.3237 64.2901 86.3237 62.105C86.3237 59.9204 88.9112 58.15 92.1045 58.15C93.6392 58.15 95.1079 58.5664 96.1934 59.3078C97.2772 60.0498 97.8863 61.055 97.8863 62.105Z" fill="#F3637A"/>
<path d="M69.0894 58.7394C68.1033 58.719 67.1155 58.8207 66.1538 59.0535C65.2084 59.2818 64.3037 59.6559 63.4425 60.1063C63.6652 60.4267 63.9025 60.7392 64.18 61.0155C65.1344 61.9643 66.3781 62.6186 67.7004 62.8673C69.0227 63.1176 70.419 62.9577 71.6537 62.422C72.7726 61.9366 73.74 61.1319 74.4514 60.1402C72.7946 59.2818 70.9558 58.7755 69.0894 58.7394Z" fill="#F3637A"/>
</svg>
