<svg width="1382" height="1323" viewBox="0 0 1382 1323" fill="none" xmlns="http://www.w3.org/2000/svg">
<mask id="mask0_17_2" style="mask-type:luminance" maskUnits="userSpaceOnUse" x="0" y="0" width="1382" height="1323">
<path d="M0 0H1381.99V1322.74H0V0Z" fill="white"/>
</mask>
<g mask="url(#mask0_17_2)">
<path d="M1091.26 864.203C1091.26 864.203 1222.12 1230.9 1115.9 1308.12C1009.68 1385.33 664.75 1130.79 664.75 1130.79C664.75 1130.79 391.859 1368.45 277.562 1314.87C273.604 1312.96 269.792 1310.76 266.271 1308.12C160.193 1230.9 262.307 872.13 262.307 872.13C262.307 872.13 -36.849 624.63 3.79688 499.703C44.2865 374.776 406.234 338.667 406.234 338.667C406.234 338.667 559.849 0 691.161 0C694.682 0 698.203 0.291667 701.724 0.885417C828.781 17.7656 944.688 336.021 944.688 336.021C944.688 336.021 1337.89 374.776 1378.53 499.703C1419.03 624.63 1091.26 864.203 1091.26 864.203Z" fill="#FEC616"/>
</g>
<mask id="mask1_17_2" style="mask-type:luminance" maskUnits="userSpaceOnUse" x="277" y="0" width="1105" height="1323">
<path d="M277.198 0.744873H1381.99V1322.74H277.198V0.744873Z" fill="white"/>
</mask>
<g mask="url(#mask1_17_2)">
<path d="M1091.26 864.203C1091.26 864.203 1222.12 1230.9 1115.9 1308.12C1009.68 1385.33 664.75 1130.79 664.75 1130.79C664.75 1130.79 391.859 1368.45 277.562 1314.87V1314.72C277.562 1314.72 332.875 1322.65 496.469 1196.99C566.745 1142.82 660.057 1029.05 660.057 1029.05C660.057 1029.05 975.656 1282.38 1060.59 1219.16C1130.99 1166.76 994.13 848.792 994.13 848.792C994.13 848.792 1325.68 652.083 1303.26 525.542C1279.68 392.427 888.786 396.646 888.786 396.646C888.786 396.646 883.896 387.479 852.693 285.672C770.219 16.5313 705.688 6.90112 701.724 0.885498C828.781 17.7657 944.688 336.021 944.688 336.021C944.688 336.021 1337.89 374.776 1378.53 499.703C1419.03 624.63 1091.26 864.203 1091.26 864.203Z" fill="#FBBA00"/>
</g>
<path d="M536.688 218.516C509.042 283.922 515.01 348.953 550.021 363.766C585.037 378.589 635.828 337.578 663.479 272.172C691.125 206.76 685.156 141.734 650.146 126.911C615.13 112.099 564.339 153.109 536.688 218.516Z" fill="#FFE38C"/>
<path d="M281.641 456.401C209.271 470.224 156.088 510.141 162.849 545.552C169.604 580.958 233.75 598.453 306.115 584.62C378.479 570.786 431.667 530.875 424.906 495.469C418.151 460.057 354.005 442.573 281.641 456.401Z" fill="#FFE38C"/>
</svg>
